<?xml version="1.0" encoding="UTF-8" standalone="no"?>
<!-- Created with Inkscape (http://www.inkscape.org/) -->

<svg
   width="800mm"
   height="300mm"
   viewBox="0 0 800 300"
   version="1.1"
   id="svg1"
   inkscape:version="1.3.2 (091e20ef0f, 2023-11-25)"
   sodipodi:docname="drawing1.svg"
   xml:space="preserve"
   xmlns:inkscape="http://www.inkscape.org/namespaces/inkscape"
   xmlns:sodipodi="http://sodipodi.sourceforge.net/DTD/sodipodi-0.dtd"
   xmlns:xlink="http://www.w3.org/1999/xlink"
   xmlns="http://www.w3.org/2000/svg"
   xmlns:svg="http://www.w3.org/2000/svg"><sodipodi:namedview
     id="namedview1"
     pagecolor="#ffffff"
     bordercolor="#000000"
     borderopacity="0.25"
     inkscape:showpageshadow="2"
     inkscape:pageopacity="0.0"
     inkscape:pagecheckerboard="0"
     inkscape:deskcolor="#d1d1d1"
     inkscape:document-units="mm"
     inkscape:zoom="0.32"
     inkscape:cx="931.25"
     inkscape:cy="307.8125"
     inkscape:window-width="1920"
     inkscape:window-height="1003"
     inkscape:window-x="0"
     inkscape:window-y="0"
     inkscape:window-maximized="1"
     inkscape:current-layer="layer1"
     showguides="false" /><defs
     id="defs1"><linearGradient
       id="linearGradient58"
       inkscape:collect="always"><stop
         style="stop-color:#236ddc;stop-opacity:1;"
         offset="0"
         id="stop59" /><stop
         style="stop-color:#5690e1;stop-opacity:1;"
         offset="1"
         id="stop60" /></linearGradient><linearGradient
       id="linearGradient57"
       inkscape:collect="always"><stop
         style="stop-color:#236ddc;stop-opacity:1;"
         offset="0"
         id="stop57" /><stop
         style="stop-color:#002256;stop-opacity:1;"
         offset="1"
         id="stop58" /></linearGradient><linearGradient
       id="linearGradient54"
       inkscape:collect="always"><stop
         style="stop-color:#236ddc;stop-opacity:1;"
         offset="0"
         id="stop55" /><stop
         style="stop-color:#0d3672;stop-opacity:1;"
         offset="1"
         id="stop56" /></linearGradient><linearGradient
       id="linearGradient53"
       inkscape:collect="always"><stop
         style="stop-color:#236ddc;stop-opacity:1;"
         offset="0"
         id="stop53" /><stop
         style="stop-color:#0d3672;stop-opacity:1;"
         offset="1"
         id="stop54" /></linearGradient><linearGradient
       id="linearGradient51"
       inkscape:collect="always"><stop
         style="stop-color:#ffca63;stop-opacity:1;"
         offset="0"
         id="stop51" /><stop
         style="stop-color:#ff9f37;stop-opacity:1;"
         offset="1"
         id="stop52" /></linearGradient><linearGradient
       inkscape:collect="always"
       xlink:href="#linearGradient51"
       id="linearGradient52"
       x1="424.6879"
       y1="71.36142"
       x2="397.02975"
       y2="85.358124"
       gradientUnits="userSpaceOnUse" /><radialGradient
       inkscape:collect="always"
       xlink:href="#linearGradient53"
       id="radialGradient54"
       cx="485.04202"
       cy="132.56938"
       fx="485.04202"
       fy="132.56938"
       r="44.97492"
       gradientTransform="matrix(1.9667099,-0.77372019,0.28921422,0.73515009,-507.23588,410.39779)"
       gradientUnits="userSpaceOnUse" /><linearGradient
       inkscape:collect="always"
       xlink:href="#linearGradient54"
       id="linearGradient56"
       x1="343.06673"
       y1="187.92201"
       x2="391.80389"
       y2="187.92201"
       gradientUnits="userSpaceOnUse"
       gradientTransform="translate(1.0583344)" /><radialGradient
       inkscape:collect="always"
       xlink:href="#linearGradient57"
       id="radialGradient58"
       cx="414.6824"
       cy="189.63391"
       fx="414.6824"
       fy="189.63391"
       r="48.942834"
       gradientTransform="matrix(0.8639918,-3.25882,1.5546808,0.41218338,-238.41999,1462.8453)"
       gradientUnits="userSpaceOnUse" /><linearGradient
       inkscape:collect="always"
       xlink:href="#linearGradient58"
       id="linearGradient60"
       x1="453.29202"
       y1="209.39912"
       x2="476.42756"
       y2="207.09345"
       gradientUnits="userSpaceOnUse" /></defs><g
     inkscape:label="Layer 1"
     inkscape:groupmode="layer"
     id="layer1"><path
       style="opacity:1;fill:#ffca63;fill-opacity:1;stroke:#000000;stroke-width:3.37201;stroke-linejoin:round;stroke-dasharray:none"
       d="m 504.73749,92.857543 -0.1324,-3.421073 c 0,0 -5.54956,0.477417 -5.39205,-6.535163 0,0 -0.40061,-3.671939 5.2498,-3.578834 V 58.750768 c 0,0 -1.09294,-6.418264 5.03437,-6.782147 0,0 3.80048,-0.559403 3.86306,7.001719 v 10.443483 c 0,0 -6.63111,19.944284 12.77446,18.69151 l 0.2674,8.958413 -21.56895,0.04169 z"
       id="path38"
       sodipodi:nodetypes="cccccccccccc" /><path
       style="opacity:1;fill:url(#linearGradient60);stroke:#000000;stroke-width:3.37201;stroke-linejoin:round;stroke-dasharray:none"
       d="m 472.16411,151.92383 c 0,0 10.76031,115.26339 -46.54553,116.01133 l -5.56705,0.10589 11.79831,-119.12447 37.99182,-1.37484 z"
       id="path29"
       sodipodi:nodetypes="cccccc" /><path
       style="opacity:1;fill:url(#radialGradient54);fill-opacity:1;stroke:#000000;stroke-width:3.37201;stroke-linejoin:round;stroke-dasharray:none"
       d="m 441.75306,117.38515 c 0,0 61.87106,55.76548 62.33141,-20.315403 l 23.04027,-0.220606 c 0,0 8.06803,52.591899 -17.53365,65.525159 0,0 -30.32414,17.47986 -64.05385,-7.29423 z"
       id="path28"
       sodipodi:nodetypes="cccccc" /><path
       style="opacity:1;fill:#000000;stroke:#000000;stroke-width:3.37201;stroke-linejoin:round;stroke-dasharray:none"
       d="m 388.7414,103.76396 c 0,0 -19.43764,5.47868 -15.47809,-14.418785 0,0 -15.43829,-8.507167 -2.34676,-24.427007 0,0 -5.38765,-17.134337 7.6444,-18.051934 0,0 -1.27553,-12.289798 15.39018,-11.318407 0,0 11.41823,-16.845713 27.07738,-2.561409 0,0 11.02047,-6.617663 15.08138,8.370097 0,0 13.49551,1.329843 5.9318,13.513088 0,0 11.14357,9.022346 3.82608,17.884345 0,0 7.31905,4.299361 -1.09657,14.866207"
       id="path26" /><path
       style="opacity:1;fill:url(#linearGradient52);fill-opacity:1;stroke:#000000;stroke-width:3.372;stroke-linejoin:round;stroke-dasharray:none"
       d="m 436.15437,55.206848 h -46.89055 v 34.000739 c 0,0 -8.88216,-2.663307 -8.17303,5.950931 0.70917,8.614242 8.91114,6.299042 8.91114,6.299042 v 11.84858 h 46.8797 v -12.69428 c 0,0 9.30941,1.80674 9.04457,-7.91751 -0.26482,-9.724249 -9.70098,-4.717295 -9.70098,-4.717295 z"
       id="path1" /><path
       style="opacity:1;fill:none;fill-opacity:1;stroke:#ffffff;stroke-width:4.50001;stroke-linejoin:round;stroke-dasharray:none;stroke-opacity:1"
       d="M 391.24842,88.818518 V 57.088685 h 32.2064"
       id="path62" /><path
       style="fill:none;fill-opacity:1;stroke:#000000;stroke-width:3.372;stroke-linejoin:round;stroke-dasharray:none"
       d="m 436.15459,55.207 h -46.89055 v 34.000743 c 0,0 -8.88216,-2.663313 -8.17303,5.95093 0.70917,8.614237 8.91114,6.299037 8.91114,6.299037 v 11.84858 h 46.8797 v -12.69428 c 0,0 9.30941,1.80674 9.04457,-7.917507 -0.26482,-9.724253 -9.70098,-4.71729 -9.70098,-4.71729 z"
       id="path1-8" /><ellipse
       style="fill:#000000;stroke:#000000;stroke-width:3.3718;stroke-linejoin:round"
       id="path15-6"
       cx="406.18384"
       cy="85.204521"
       rx="2.7457917"
       ry="2.9122779" /><circle
       style="fill:#ffffff;stroke:#000000;stroke-width:3.3718;stroke-linejoin:round"
       id="path16-9"
       cx="433.27847"
       cy="71.771774"
       r="16.11557" /><circle
       style="fill:#000000;stroke:#000000;stroke-width:3.3718;stroke-linejoin:round"
       id="path17-3"
       cx="433.69754"
       cy="71.793091"
       r="2.6878295" /><rect
       style="fill:#f9f9f9;stroke:#000000;stroke-width:3.372;stroke-linejoin:round;stroke-dasharray:none"
       id="rect17-6"
       width="29.59553"
       height="7.2716312"
       x="387.57242"
       y="67.900681"
       ry="1.1308037" /><path
       style="opacity:1;fill:url(#linearGradient56);fill-opacity:1;stroke:none;stroke-width:3.37201;stroke-linejoin:round;stroke-dasharray:none"
       d="m 391.17666,113.51718 c 0,0 -45.32743,-0.2338 -45.32743,76.63847 v 60.8945 c 0,0 -1.37004,9.75213 11.55428,11.03393 5.51257,0.54672 10.12176,0 10.12176,0 0,0 9.312,-0.53303 9.39244,-11.78962 v -95.73495 c 0,0 -1.95381,-31.23968 14.25895,-41.04233 z"
       id="path4"
       sodipodi:nodetypes="cscscccc" /><path
       style="opacity:1;fill:none;fill-opacity:1;stroke:#ffffff;stroke-width:4.50001;stroke-linejoin:round;stroke-dasharray:none;stroke-opacity:1"
       d="m 386.04075,118.89049 c 0,0 -37.3612,3.46851 -38.32947,80.34699"
       id="path60" /><path
       style="opacity:1;fill:#2a7fff;fill-opacity:1;stroke:none;stroke-width:4.50001;stroke-linejoin:round;stroke-dasharray:none;stroke-opacity:1"
       d="m 345.19256,181.39109 h 10.7062 l -6.84829,77.65146 -2.65819,-6.31859 z"
       id="path66" /><path
       style="fill:none;fill-opacity:1;stroke:#000000;stroke-width:3.37201;stroke-linejoin:round;stroke-dasharray:none"
       d="m 391.80059,115.20298 c 0,0 -45.32743,-0.2338 -45.32743,76.63847 v 60.8945 c 0,0 -1.37004,9.75213 11.55428,11.03393 5.51257,0.54672 10.12176,0 10.12176,0 0,0 9.312,-0.53303 9.39244,-11.78962 v -95.73495 c 0,0 -1.95381,-31.23968 14.25895,-41.04233 z"
       id="path4-4"
       sodipodi:nodetypes="cscscccc" /><path
       style="opacity:1;fill:url(#radialGradient58);fill-opacity:1;stroke:none;stroke-width:3.37201;stroke-linejoin:round;stroke-dasharray:none"
       d="m 392.28455,112.60061 43.27189,3.26901 c 0,0 30.19999,11.02564 8.10939,45.70915 0,0 -23.44112,29.38844 7.69562,51.82612 0,0 25.82202,16.16605 -3.06831,42.91602 0,0 -49.02471,38.41182 -76.93952,-32.78521 0,0 -17.36607,-96.19975 20.93093,-110.93509 z"
       id="path27"
       sodipodi:nodetypes="ccccccc" /><path
       style="opacity:1;fill:#002256;fill-opacity:1;stroke:none;stroke-width:4.50001;stroke-linejoin:round;stroke-dasharray:none;stroke-opacity:1"
       d="m 443.91619,208.51587 c 0,0 16.55604,61.14018 -36.24352,55.71944 0,0 36.66921,14.90138 53.55837,-22.83285 0,0 9.36063,-18.08711 -17.31485,-32.88659 z"
       id="path67" /><path
       style="opacity:1;fill:none;fill-opacity:1;stroke:#ffffff;stroke-width:4.50001;stroke-linejoin:round;stroke-dasharray:none;stroke-opacity:1"
       d="m 389.15357,116.50941 c 0,0 -29.24204,14.5212 -13.95119,109.59541"
       id="path61" /><path
       style="opacity:1;fill:none;stroke:#000000;stroke-width:3.37201;stroke-linejoin:round;stroke-dasharray:none"
       d="m 526.53249,88.667064 v 4.899882"
       id="path44" /><path
       style="opacity:1;fill:none;stroke:#000000;stroke-width:3.37201;stroke-linejoin:round;stroke-dasharray:none"
       d="m 414.51672,91.223251 c 0,0 7.47061,-2.004304 7.86013,5.825103 0,0 -1.35911,7.865096 -10.39494,2.569756 l -3.03005,2.20164"
       id="path46" /><path
       style="opacity:1;fill:#ffca63;fill-opacity:1;stroke:#000000;stroke-width:3.37201;stroke-linejoin:round;stroke-dasharray:none"
       d="m 351.39563,261.29631 v 8.70061 c 0,0 -7.21921,0.81468 -6.20956,8.68511 0,0 -1.74984,8.51906 28.89966,6.11852 v -9.1977 h 6.56335 c 0,0 3.1371,-6.99008 -7.71992,-9.14959 V 258.783 Z"
       id="path47" /><path
       style="fill:none;fill-opacity:1;stroke:#000000;stroke-width:3.37201;stroke-linejoin:round;stroke-dasharray:none"
       d="m 392.97885,113.95596 43.27189,3.26901 c 0,0 30.19999,11.02564 8.10939,45.70915 0,0 -23.44112,29.38844 7.69562,51.82612 0,0 25.82202,16.16605 -3.06831,42.91602 0,0 -49.02471,38.41182 -76.93952,-32.78521 0,0 -17.36607,-96.19975 20.93093,-110.93509 z"
       id="path27-4"
       sodipodi:nodetypes="ccccccc" /><path
       style="opacity:1;fill:#000000;stroke:#000000;stroke-width:3.37201;stroke-linejoin:round;stroke-dasharray:none"
       d="m 389.05432,105.08936 v 16.09673 l 9.40872,0.52967 0.52967,5.20661 10.6884,5.78075 -0.52967,10.39771 7.19079,2.77348 v 6.23593 l 5.17142,7.34388 3.85558,-13.93361 7.48559,-5.09488 1.96969,-12.40463 4.23625,-4.27764 v -17.53778 z"
       id="path5" /><path
       style="fill:#ffe680;stroke:#000000;stroke-width:3.3718;stroke-linejoin:round"
       d="m 427.35606,111.83834 h -22.44915 v 11.26868 h 23.08365 z"
       id="path11-9" /><path
       style="fill:#ffe680;stroke:#000000;stroke-width:3.3718;stroke-linejoin:round;stroke-dasharray:none"
       d="m 423.86682,115.5746 c 0,0 -4.38952,5.78061 -13.97358,0.12203"
       id="path19-2" /><path
       style="opacity:1;fill:#ffca63;fill-opacity:1;stroke:#000000;stroke-width:3.37201;stroke-linejoin:round;stroke-dasharray:none"
       d="m 513.80939,70.219222 c 0,0 28.40043,-3.645056 14.26861,18.166759 0,0 -20.67507,3.925951 -14.26861,-18.166759 z"
       id="path48" /><ellipse
       style="fill:#000000;stroke:#000000;stroke-width:2.078;stroke-linejoin:round"
       id="path15-6-2"
       cx="407.95544"
       cy="165.93015"
       rx="1.6921998"
       ry="1.7948034" /><ellipse
       style="fill:#000000;stroke:#000000;stroke-width:2.078;stroke-linejoin:round"
       id="path15-6-2-3"
       cx="404.67776"
       cy="185.12476"
       rx="1.6921998"
       ry="1.7948034" /><ellipse
       style="fill:#000000;stroke:#000000;stroke-width:3.88003;stroke-linejoin:round"
       id="path15-6-2-3-2"
       cx="375.73444"
       cy="182.16814"
       rx="3.1596627"
       ry="3.3512433" /><ellipse
       style="fill:#000000;stroke:#000000;stroke-width:3.88003;stroke-linejoin:round"
       id="path15-6-2-3-2-5"
       cx="386.49603"
       cy="189.02901"
       rx="3.1596627"
       ry="3.3512433" /><ellipse
       style="fill:#000000;stroke:#000000;stroke-width:7.95176;stroke-linejoin:round"
       id="path15-6-2-3-2-5-6"
       cx="425.46588"
       cy="202.85742"
       rx="6.4754376"
       ry="6.8680639" /><ellipse
       style="fill:#000000;stroke:#000000;stroke-width:2.078;stroke-linejoin:round"
       id="path15-6-2-3-9"
       cx="405.21078"
       cy="193.9146"
       rx="1.6921998"
       ry="1.7948034" /><ellipse
       style="fill:#000000;stroke:#000000;stroke-width:2.078;stroke-linejoin:round"
       id="path15-6-2-3-9-4"
       cx="406.83267"
       cy="202.21991"
       rx="1.6921998"
       ry="1.7948034" /><ellipse
       style="fill:#000000;stroke:#000000;stroke-width:2.078;stroke-linejoin:round"
       id="path15-6-2-3-9-4-5"
       cx="409.25659"
       cy="210.82162"
       rx="1.6921998"
       ry="1.7948034" /><ellipse
       style="fill:#000000;stroke:#000000;stroke-width:2.078;stroke-linejoin:round"
       id="path15-6-2-3-9-4-5-1"
       cx="416.52356"
       cy="224.84218"
       rx="1.6921998"
       ry="1.7948034" /><path
       style="opacity:1;fill:none;fill-opacity:1;stroke:#000000;stroke-width:4.5;stroke-linejoin:round;stroke-dasharray:none"
       d="m 399.64447,119.77432 c 0,0 -11.38463,11.83565 -14.28586,27.41773 0,0 -12.5598,-1.56622 -10.54564,32.9797"
       id="path49" /><path
       style="opacity:1;fill:none;fill-opacity:1;stroke:#000000;stroke-width:4.50001;stroke-linejoin:round;stroke-dasharray:none"
       d="m 386.0424,147.27067 c 0,0 12.2836,-0.53483 0.74898,38.96632"
       id="path50" /><path
       style="opacity:1;fill:none;fill-opacity:1;stroke:#000000;stroke-width:4.50001;stroke-linejoin:round;stroke-dasharray:none"
       d="m 434.19543,122.66348 c 0,0 18.00071,23.05829 -5.56086,48.78215 0,0 -12.513,7.73633 -3.3605,25.0904"
       id="path51" /><path
       style="opacity:1;fill:#002256;fill-opacity:1;stroke:none;stroke-width:4.50001;stroke-linejoin:round;stroke-dasharray:none;stroke-opacity:1"
       d="m 454.76472,149.20197 c 0,0 14.53319,21.13162 57.67249,10.49516 0,0 -23.50064,20.7489 -61.35444,-1.5301"
       id="path68" /><path
       style="opacity:1;fill:none;fill-opacity:1;stroke:#000000;stroke-width:4.50001;stroke-linejoin:round;stroke-dasharray:none;stroke-opacity:1"
       d="m 437.63507,114.58521 c 0,0 34.6575,22.43758 5.05597,56.80483"
       id="path63"
       sodipodi:nodetypes="cc" /><path
       style="opacity:1;fill:none;fill-opacity:1;stroke:#000000;stroke-width:4.50001;stroke-linejoin:round;stroke-dasharray:none;stroke-opacity:1"
       d="m 470.4536,166.74795 c 0,0 1.36862,44.04644 -6.61495,64.66372"
       id="path64"
       sodipodi:nodetypes="cc" /><path
       style="opacity:1;fill:none;fill-opacity:1;stroke:#000000;stroke-width:4.50001;stroke-linejoin:round;stroke-dasharray:none;stroke-opacity:1"
       d="m 383.44168,243.08558 c 0,0 8.91529,16.65433 26.0341,22.4951"
       id="path65" /><path
       style="opacity:1;fill:none;stroke:#000000;stroke-width:3.37201;stroke-linejoin:round;stroke-dasharray:none"
       d="m 410.29873,136.0665 c 0,0 -43.05233,81.78224 32.83914,125.20836"
       id="path45"
       sodipodi:nodetypes="cc" /></g></svg>
