<?xml version="1.0" encoding="UTF-8" standalone="no"?>
<!-- Created with Inkscape (http://www.inkscape.org/) -->

<svg
   width="800"
   height="300"
   viewBox="0 0 211.66667 79.374999"
   version="1.1"
   id="svg1"
   inkscape:version="1.3.2 (091e20ef0f, 2023-11-25)"
   sodipodi:docname="drawing1.svg"
   xml:space="preserve"
   xmlns:inkscape="http://www.inkscape.org/namespaces/inkscape"
   xmlns:sodipodi="http://sodipodi.sourceforge.net/DTD/sodipodi-0.dtd"
   xmlns:xlink="http://www.w3.org/1999/xlink"
   xmlns="http://www.w3.org/2000/svg"
   xmlns:svg="http://www.w3.org/2000/svg"><sodipodi:namedview
     id="namedview1"
     pagecolor="#ffffff"
     bordercolor="#000000"
     borderopacity="0.25"
     inkscape:showpageshadow="2"
     inkscape:pageopacity="0.0"
     inkscape:pagecheckerboard="0"
     inkscape:deskcolor="#d1d1d1"
     inkscape:document-units="mm"
     inkscape:zoom="0.90509668"
     inkscape:cx="472.87766"
     inkscape:cy="169.59514"
     inkscape:window-width="1920"
     inkscape:window-height="1003"
     inkscape:window-x="0"
     inkscape:window-y="0"
     inkscape:window-maximized="1"
     inkscape:current-layer="layer1"
     showguides="false" /><defs
     id="defs1"><linearGradient
       id="linearGradient58"
       inkscape:collect="always"><stop
         style="stop-color:#236ddc;stop-opacity:1;"
         offset="0"
         id="stop59" /><stop
         style="stop-color:#5690e1;stop-opacity:1;"
         offset="1"
         id="stop60" /></linearGradient><linearGradient
       id="linearGradient57"
       inkscape:collect="always"><stop
         style="stop-color:#236ddc;stop-opacity:1;"
         offset="0"
         id="stop57" /><stop
         style="stop-color:#002256;stop-opacity:1;"
         offset="1"
         id="stop58" /></linearGradient><linearGradient
       id="linearGradient54"
       inkscape:collect="always"><stop
         style="stop-color:#236ddc;stop-opacity:1;"
         offset="0"
         id="stop55" /><stop
         style="stop-color:#0d3672;stop-opacity:1;"
         offset="1"
         id="stop56" /></linearGradient><linearGradient
       id="linearGradient53"
       inkscape:collect="always"><stop
         style="stop-color:#236ddc;stop-opacity:1;"
         offset="0"
         id="stop53" /><stop
         style="stop-color:#0d3672;stop-opacity:1;"
         offset="1"
         id="stop54" /></linearGradient><linearGradient
       id="linearGradient51"
       inkscape:collect="always"><stop
         style="stop-color:#ffca63;stop-opacity:1;"
         offset="0"
         id="stop51" /><stop
         style="stop-color:#ff9f37;stop-opacity:1;"
         offset="1"
         id="stop52" /></linearGradient><linearGradient
       inkscape:collect="always"
       xlink:href="#linearGradient51"
       id="linearGradient52"
       x1="424.6879"
       y1="71.36142"
       x2="397.02975"
       y2="85.358124"
       gradientUnits="userSpaceOnUse"
       gradientTransform="matrix(0.263913,0,0,0.263913,-2.3470949,0.20699655)" /><radialGradient
       inkscape:collect="always"
       xlink:href="#linearGradient53"
       id="radialGradient54"
       cx="485.04202"
       cy="132.56938"
       fx="485.04202"
       fy="132.56938"
       r="44.974918"
       gradientTransform="matrix(0.51904031,-0.20419482,0.07632739,0.19401567,-136.21324,108.51631)"
       gradientUnits="userSpaceOnUse" /><linearGradient
       inkscape:collect="always"
       xlink:href="#linearGradient54"
       id="linearGradient56"
       x1="343.06674"
       y1="187.92201"
       x2="391.80389"
       y2="187.92201"
       gradientUnits="userSpaceOnUse"
       gradientTransform="matrix(0.263913,0,0,0.263913,-2.0677836,0.20699655)" /><radialGradient
       inkscape:collect="always"
       xlink:href="#linearGradient57"
       id="radialGradient58"
       cx="414.6824"
       cy="189.63391"
       fx="414.6824"
       fy="189.63391"
       r="48.942833"
       gradientTransform="matrix(0.22801867,-0.86004496,0.41030048,0.10878056,-65.269227,386.27089)"
       gradientUnits="userSpaceOnUse" /><linearGradient
       inkscape:collect="always"
       xlink:href="#linearGradient58"
       id="linearGradient60"
       x1="453.29202"
       y1="209.39912"
       x2="476.42755"
       y2="207.09344"
       gradientUnits="userSpaceOnUse"
       gradientTransform="matrix(0.263913,0,0,0.263913,-2.3470949,0.20699655)" /></defs><g
     inkscape:label="Layer 1"
     inkscape:groupmode="layer"
     id="layer1"><path
       style="opacity:1;fill:#ffca63;fill-opacity:1;stroke:#000000;stroke-width:0.889917;stroke-linejoin:round;stroke-dasharray:none"
       d="m 130.8597,24.71331 -0.035,-0.902865 c 0,0 -1.4646,0.125996 -1.42303,-1.724715 0,0 -0.10572,-0.969072 1.38549,-0.944501 v -5.42914 c 0,0 -0.28844,-1.693864 1.32863,-1.789897 0,0 1.00301,-0.147634 1.01952,1.847845 v 2.75617 c 0,0 -1.75003,5.263557 3.37134,4.932934 l 0.0705,2.364241 -5.69232,0.01101 z"
       id="path38"
       sodipodi:nodetypes="cccccccccccc" /><path
       style="opacity:1;fill:url(#linearGradient60);stroke:#000000;stroke-width:0.889917;stroke-linejoin:round;stroke-dasharray:none"
       d="m 122.26316,40.301671 c 0,0 2.83978,30.419508 -12.28397,30.616895 l -1.46922,0.02792 3.11373,-31.438493 10.02654,-0.362839 z"
       id="path29"
       sodipodi:nodetypes="cccccc" /><path
       style="opacity:1;fill:url(#radialGradient54);fill-opacity:1;stroke:#000000;stroke-width:0.889917;stroke-linejoin:round;stroke-dasharray:none"
       d="m 114.23729,31.186465 c 0,0 16.32857,14.717235 16.45007,-5.3615 l 6.08062,-0.05822 c 0,0 2.12926,13.879686 -4.62735,17.292941 0,0 -8.00294,4.613163 -16.90465,-1.925042 z"
       id="path28"
       sodipodi:nodetypes="cccccc" /><path
       style="opacity:1;fill:#000000;stroke:#000000;stroke-width:0.889917;stroke-linejoin:round;stroke-dasharray:none"
       d="m 100.24682,27.591655 c 0,0 -5.129849,1.445895 -4.084868,-3.805304 0,0 -4.074371,-2.245153 -0.619342,-6.446605 0,0 -1.421875,-4.521975 2.017455,-4.76414 0,0 -0.336628,-3.2434383 4.061665,-2.9870753 0,0 3.01343,-4.4458023 7.14608,-0.67599 0,0 2.90845,-1.7464861 3.98017,2.2089783 0,0 3.56165,0.350963 1.56548,3.56628 0,0 2.94094,2.381114 1.00975,4.719911 0,0 1.93159,1.134657 -0.2894,3.923385"
       id="path26" /><path
       style="opacity:1;fill:url(#linearGradient52);fill-opacity:1;stroke:#000000;stroke-width:0.889917;stroke-linejoin:round;stroke-dasharray:none"
       d="m 112.75972,14.776802 h -12.37503 v 8.973238 c 0,0 -2.344117,-0.702882 -2.156968,1.570527 0.187156,2.273411 2.351768,1.662399 2.351768,1.662399 v 3.126995 h 12.37217 v -3.350186 c 0,0 2.45687,0.476823 2.38697,-2.089534 -0.0699,-2.566356 -2.56021,-1.244955 -2.56021,-1.244955 z"
       id="path1" /><path
       style="opacity:1;fill:none;fill-opacity:1;stroke:#ffffff;stroke-width:1.18761;stroke-linejoin:round;stroke-dasharray:none;stroke-opacity:1"
       d="m 100.90845,23.647359 v -8.373915 h 8.49969"
       id="path62" /><path
       style="fill:none;fill-opacity:1;stroke:#000000;stroke-width:0.889917;stroke-linejoin:round;stroke-dasharray:none"
       d="m 112.75978,14.776842 h -12.37503 v 8.973238 c 0,0 -2.344114,-0.702883 -2.156973,1.570529 0.187164,2.273408 2.351763,1.662397 2.351763,1.662397 V 30.11 h 12.37217 v -3.350185 c 0,0 2.45688,0.476822 2.38698,-2.089533 -0.0699,-2.566357 -2.56021,-1.244954 -2.56021,-1.244954 z"
       id="path1-8" /><ellipse
       style="fill:#000000;stroke:#000000;stroke-width:0.889862;stroke-linejoin:round"
       id="path15-6"
       cx="104.85011"
       cy="22.693577"
       rx="0.72465014"
       ry="0.76858801" /><circle
       style="fill:#ffffff;stroke:#000000;stroke-width:0.889862;stroke-linejoin:round"
       id="path16-9"
       cx="112.00073"
       cy="19.1485"
       r="4.2531085" /><circle
       style="fill:#000000;stroke:#000000;stroke-width:0.889862;stroke-linejoin:round"
       id="path17-3"
       cx="112.11131"
       cy="19.154125"
       r="0.70935315" /><rect
       style="fill:#f9f9f9;stroke:#000000;stroke-width:0.889917;stroke-linejoin:round;stroke-dasharray:none"
       id="rect17-6"
       width="7.8106451"
       height="1.919078"
       x="99.938301"
       y="18.126867"
       ry="0.29843381" /><path
       style="opacity:1;fill:url(#linearGradient56);fill-opacity:1;stroke:none;stroke-width:0.889917;stroke-linejoin:round;stroke-dasharray:none"
       d="m 100.88952,30.165657 c 0,0 -11.962506,-0.0617 -11.962506,20.225888 v 16.070851 c 0,0 -0.361571,2.573716 3.049328,2.911995 1.454835,0.144286 2.671267,0 2.671267,0 0,0 2.457557,-0.140672 2.478785,-3.111431 V 40.997262 c 0,0 -0.515635,-8.244558 3.763126,-10.831605 z"
       id="path4"
       sodipodi:nodetypes="cscscccc" /><path
       style="opacity:1;fill:none;fill-opacity:1;stroke:#ffffff;stroke-width:1.18761;stroke-linejoin:round;stroke-dasharray:none;stroke-opacity:1"
       d="m 99.534079,31.583743 c 0,0 -9.860104,0.915385 -10.115646,21.204616"
       id="path60" /><path
       style="opacity:1;fill:#2a7fff;fill-opacity:1;stroke:none;stroke-width:1.18761;stroke-linejoin:round;stroke-dasharray:none;stroke-opacity:1"
       d="m 88.75371,48.078464 h 2.825511 l -1.807358,20.49323 -0.701525,-1.667562 z"
       id="path66" /><path
       style="fill:none;fill-opacity:1;stroke:#000000;stroke-width:0.889917;stroke-linejoin:round;stroke-dasharray:none"
       d="m 101.05418,30.610562 c 0,0 -11.962496,-0.06171 -11.962496,20.225888 V 66.9073 c 0,0 -0.361572,2.573716 3.049319,2.911995 1.454844,0.144286 2.671268,0 2.671268,0 0,0 2.457556,-0.140673 2.478784,-3.111432 V 41.442166 c 0,0 -0.515635,-8.244558 3.763125,-10.831604 z"
       id="path4-4"
       sodipodi:nodetypes="cscscccc" /><path
       style="opacity:1;fill:url(#radialGradient58);fill-opacity:1;stroke:none;stroke-width:0.889917;stroke-linejoin:round;stroke-dasharray:none"
       d="m 101.1819,29.923763 11.42002,0.862734 c 0,0 7.97017,2.909809 2.14018,12.063239 0,0 -6.18643,7.755991 2.03097,13.677586 0,0 6.81476,4.266431 -0.80977,11.326093 0,0 -12.93826,10.137383 -20.305344,-8.652441 0,0 -4.583131,-25.388364 5.523944,-29.277211 z"
       id="path27"
       sodipodi:nodetypes="ccccccc" /><path
       style="opacity:1;fill:#002256;fill-opacity:1;stroke:none;stroke-width:1.18761;stroke-linejoin:round;stroke-dasharray:none;stroke-opacity:1"
       d="m 114.80817,55.237046 c 0,0 4.36935,16.135692 -9.56514,14.705088 0,0 9.67748,3.932666 14.13475,-6.025889 0,0 2.47039,-4.773424 -4.56961,-8.679199 z"
       id="path67" /><path
       style="opacity:1;fill:none;fill-opacity:1;stroke:#ffffff;stroke-width:1.18761;stroke-linejoin:round;stroke-dasharray:none;stroke-opacity:1"
       d="m 100.3556,30.955345 c 0,0 -7.717359,3.832334 -3.681908,28.923654"
       id="path61" /><path
       style="opacity:1;fill:none;stroke:#000000;stroke-width:0.889917;stroke-linejoin:round;stroke-dasharray:none"
       d="m 136.61168,23.607388 v 1.293143"
       id="path44" /><path
       style="opacity:1;fill:none;stroke:#000000;stroke-width:0.889917;stroke-linejoin:round;stroke-dasharray:none"
       d="m 107.04926,24.281999 c 0,0 1.97159,-0.528961 2.07439,1.537321 0,0 -0.35868,2.075701 -2.74336,0.678192 l -0.79967,0.581041"
       id="path46" /><path
       style="opacity:1;fill:#ffca63;fill-opacity:1;stroke:#000000;stroke-width:0.889917;stroke-linejoin:round;stroke-dasharray:none"
       d="m 90.390783,69.166491 v 2.296204 c 0,0 -1.905246,0.215002 -1.638786,2.292113 0,0 -0.461806,2.248288 7.626998,1.614757 v -2.427396 h 1.732153 c 0,0 0.827922,-1.844769 -2.037385,-2.414694 v -2.024283 z"
       id="path47" /><path
       style="fill:none;fill-opacity:1;stroke:#000000;stroke-width:0.889917;stroke-linejoin:round;stroke-dasharray:none"
       d="m 101.36514,30.281457 11.42002,0.862734 c 0,0 7.97016,2.909809 2.14017,12.063239 0,0 -6.18642,7.755992 2.03098,13.677587 0,0 6.81476,4.266431 -0.80977,11.326098 0,0 -12.93827,10.137375 -20.305346,-8.652446 0,0 -4.583131,-25.388364 5.523946,-29.277212 z"
       id="path27-4"
       sodipodi:nodetypes="ccccccc" /><path
       style="opacity:1;fill:#000000;stroke:#000000;stroke-width:0.889917;stroke-linejoin:round;stroke-dasharray:none"
       d="m 100.3294,27.941446 v 4.248136 l 2.48309,0.139787 0.13979,1.374092 2.8208,1.525615 -0.13979,2.744091 1.89775,0.731957 v 1.645744 l 1.36481,1.938145 1.01753,-3.677261 1.97555,-1.344605 0.51983,-3.273743 1.11799,-1.128925 v -4.628448 z"
       id="path5" /><path
       style="fill:#ffe680;stroke:#000000;stroke-width:0.889862;stroke-linejoin:round"
       d="m 110.43773,29.72259 h -5.92462 v 2.97395 h 6.09207 z"
       id="path11-9" /><path
       style="fill:#ffe680;stroke:#000000;stroke-width:0.889862;stroke-linejoin:round;stroke-dasharray:none"
       d="m 109.51688,30.708637 c 0,0 -1.15845,1.525578 -3.68781,0.0322"
       id="path19-2" /><path
       style="opacity:1;fill:#ffca63;fill-opacity:1;stroke:#000000;stroke-width:0.889917;stroke-linejoin:round;stroke-dasharray:none"
       d="m 133.25389,18.738762 c 0,0 7.49524,-0.961977 3.76567,4.794445 0,0 -5.45641,1.03611 -3.76567,-4.794445 z"
       id="path48" /><ellipse
       style="fill:#000000;stroke:#000000;stroke-width:0.548411;stroke-linejoin:round"
       id="path15-6-2"
       cx="105.31764"
       cy="43.998119"
       rx="0.44659355"
       ry="0.47367191" /><ellipse
       style="fill:#000000;stroke:#000000;stroke-width:0.548411;stroke-linejoin:round"
       id="path15-6-2-3"
       cx="104.45263"
       cy="49.063828"
       rx="0.44659355"
       ry="0.47367191" /><ellipse
       style="fill:#000000;stroke:#000000;stroke-width:1.02399;stroke-linejoin:round"
       id="path15-6-2-3-2"
       cx="96.814102"
       cy="48.283539"
       rx="0.83387607"
       ry="0.88443667" /><ellipse
       style="fill:#000000;stroke:#000000;stroke-width:1.02399;stroke-linejoin:round"
       id="path15-6-2-3-2-5"
       cx="99.654228"
       cy="50.094212"
       rx="0.83387607"
       ry="0.88443667" /><ellipse
       style="fill:#000000;stroke:#000000;stroke-width:2.09857;stroke-linejoin:round"
       id="path15-6-2-3-2-5-6"
       cx="109.93889"
       cy="53.743706"
       rx="1.7089522"
       ry="1.8125713" /><ellipse
       style="fill:#000000;stroke:#000000;stroke-width:0.548411;stroke-linejoin:round"
       id="path15-6-2-3-9"
       cx="104.59329"
       cy="51.383579"
       rx="0.44659355"
       ry="0.47367191" /><ellipse
       style="fill:#000000;stroke:#000000;stroke-width:0.548411;stroke-linejoin:round"
       id="path15-6-2-3-9-4"
       cx="105.02134"
       cy="53.575459"
       rx="0.44659355"
       ry="0.47367191" /><ellipse
       style="fill:#000000;stroke:#000000;stroke-width:0.548411;stroke-linejoin:round"
       id="path15-6-2-3-9-4-5"
       cx="105.66103"
       cy="55.845566"
       rx="0.44659355"
       ry="0.47367191" /><ellipse
       style="fill:#000000;stroke:#000000;stroke-width:0.548411;stroke-linejoin:round"
       id="path15-6-2-3-9-4-5-1"
       cx="107.57887"
       cy="59.545769"
       rx="0.44659355"
       ry="0.47367191" /><path
       style="opacity:1;fill:none;fill-opacity:1;stroke:#000000;stroke-width:1.18761;stroke-linejoin:round;stroke-dasharray:none"
       d="m 103.12428,31.816998 c 0,0 -3.00455,3.123582 -3.770224,7.235895 0,0 -3.314693,-0.413346 -2.783133,8.703772"
       id="path49" /><path
       style="opacity:1;fill:none;fill-opacity:1;stroke:#000000;stroke-width:1.18761;stroke-linejoin:round;stroke-dasharray:none"
       d="m 99.534517,39.073642 c 0,0 3.241803,-0.141149 0.197669,10.283718"
       id="path50" /><path
       style="opacity:1;fill:none;fill-opacity:1;stroke:#000000;stroke-width:1.18761;stroke-linejoin:round;stroke-dasharray:none"
       d="m 112.24273,32.579485 c 0,0 4.75063,6.085382 -1.46758,12.874243 0,0 -3.30234,2.041718 -0.88688,6.621683"
       id="path51" /><path
       style="opacity:1;fill:#002256;fill-opacity:1;stroke:none;stroke-width:1.18761;stroke-linejoin:round;stroke-dasharray:none;stroke-opacity:1"
       d="m 117.67124,39.583337 c 0,0 3.83549,5.57691 15.22052,2.769809 0,0 -6.20213,5.475904 -16.19224,-0.403813"
       id="path68" /><path
       style="opacity:1;fill:none;fill-opacity:1;stroke:#000000;stroke-width:1.18761;stroke-linejoin:round;stroke-dasharray:none;stroke-opacity:1"
       d="m 113.1505,30.447524 c 0,0 9.14656,5.921569 1.33433,14.991533"
       id="path63"
       sodipodi:nodetypes="cc" /><path
       style="opacity:1;fill:none;fill-opacity:1;stroke:#000000;stroke-width:1.18761;stroke-linejoin:round;stroke-dasharray:none;stroke-opacity:1"
       d="m 121.81173,44.213949 c 0,0 0.3612,11.624428 -1.74577,17.065597"
       id="path64"
       sodipodi:nodetypes="cc" /><path
       style="opacity:1;fill:none;fill-opacity:1;stroke:#000000;stroke-width:1.18761;stroke-linejoin:round;stroke-dasharray:none;stroke-opacity:1"
       d="m 98.848151,64.360442 c 0,0 2.352859,4.395295 6.870739,5.936748"
       id="path65" /><path
       style="opacity:1;fill:none;stroke:#000000;stroke-width:0.889917;stroke-linejoin:round;stroke-dasharray:none"
       d="m 105.93609,36.116716 c 0,0 -11.362083,21.583396 8.66667,33.044113"
       id="path45"
       sodipodi:nodetypes="cc" /></g></svg>
