<?xml version="1.0" encoding="UTF-8" standalone="no"?>
<!-- Created with Inkscape (http://www.inkscape.org/) -->

<svg
   width="800"
   height="300"
   viewBox="0 0 211.66666 79.375"
   version="1.1"
   id="svg1"
   xml:space="preserve"
   inkscape:version="1.3.2 (091e20ef0f, 2023-11-25)"
   sodipodi:docname="drawing1.svg"
   inkscape:export-filename="drawing.png"
   inkscape:export-xdpi="300"
   inkscape:export-ydpi="300"
   xmlns:inkscape="http://www.inkscape.org/namespaces/inkscape"
   xmlns:sodipodi="http://sodipodi.sourceforge.net/DTD/sodipodi-0.dtd"
   xmlns:xlink="http://www.w3.org/1999/xlink"
   xmlns="http://www.w3.org/2000/svg"
   xmlns:svg="http://www.w3.org/2000/svg"><sodipodi:namedview
     id="namedview1"
     pagecolor="#ffffff"
     bordercolor="#000000"
     borderopacity="0.25"
     inkscape:showpageshadow="2"
     inkscape:pageopacity="0.0"
     inkscape:pagecheckerboard="0"
     inkscape:deskcolor="#d1d1d1"
     inkscape:document-units="mm"
     inkscape:zoom="0.99906609"
     inkscape:cx="305.28511"
     inkscape:cy="242.72668"
     inkscape:window-width="1920"
     inkscape:window-height="1003"
     inkscape:window-x="0"
     inkscape:window-y="0"
     inkscape:window-maximized="1"
     inkscape:current-layer="layer1" /><defs
     id="defs1"><linearGradient
       inkscape:collect="always"
       xlink:href="#linearGradient58"
       id="linearGradient60"
       x1="453.29202"
       y1="209.39912"
       x2="476.42755"
       y2="207.09344"
       gradientUnits="userSpaceOnUse"
       gradientTransform="matrix(0.263913,0,0,0.263913,-59.410116,40.069214)" /><linearGradient
       id="linearGradient58"
       inkscape:collect="always"><stop
         style="stop-color:#236ddc;stop-opacity:1;"
         offset="0"
         id="stop59" /><stop
         style="stop-color:#5690e1;stop-opacity:1;"
         offset="1"
         id="stop60" /></linearGradient><radialGradient
       inkscape:collect="always"
       xlink:href="#linearGradient53"
       id="radialGradient54"
       cx="485.04202"
       cy="132.56938"
       fx="485.04202"
       fy="132.56938"
       r="44.974918"
       gradientTransform="matrix(0.51904031,-0.20419482,0.07632739,0.19401567,-193.27626,148.37853)"
       gradientUnits="userSpaceOnUse" /><linearGradient
       id="linearGradient53"
       inkscape:collect="always"><stop
         style="stop-color:#236ddc;stop-opacity:1;"
         offset="0"
         id="stop53" /><stop
         style="stop-color:#0d3672;stop-opacity:1;"
         offset="1"
         id="stop54" /></linearGradient><linearGradient
       inkscape:collect="always"
       xlink:href="#linearGradient51"
       id="linearGradient52"
       x1="424.6879"
       y1="71.36142"
       x2="397.02975"
       y2="85.358124"
       gradientUnits="userSpaceOnUse"
       gradientTransform="matrix(0.263913,0,0,0.263913,-59.410116,40.069214)" /><linearGradient
       id="linearGradient51"
       inkscape:collect="always"><stop
         style="stop-color:#ffca63;stop-opacity:1;"
         offset="0"
         id="stop51" /><stop
         style="stop-color:#ff9f37;stop-opacity:1;"
         offset="1"
         id="stop52" /></linearGradient><linearGradient
       inkscape:collect="always"
       xlink:href="#linearGradient53"
       id="linearGradient56"
       x1="343.06674"
       y1="187.92201"
       x2="391.80389"
       y2="187.92201"
       gradientUnits="userSpaceOnUse"
       gradientTransform="matrix(0.263913,0,0,0.263913,-59.130805,40.069214)" /><radialGradient
       inkscape:collect="always"
       xlink:href="#linearGradient57"
       id="radialGradient58"
       cx="414.6824"
       cy="189.63391"
       fx="414.6824"
       fy="189.63391"
       r="48.942833"
       gradientTransform="matrix(0.22801867,-0.86004496,0.41030048,0.10878056,-122.33225,426.13311)"
       gradientUnits="userSpaceOnUse" /><linearGradient
       id="linearGradient57"
       inkscape:collect="always"><stop
         style="stop-color:#236ddc;stop-opacity:1;"
         offset="0"
         id="stop57" /><stop
         style="stop-color:#002256;stop-opacity:1;"
         offset="1"
         id="stop58" /></linearGradient></defs><g
     inkscape:label="Layer 1"
     inkscape:groupmode="layer"
     id="layer1"><g
       id="g1"
       transform="translate(54.944086,-39.573563)"><path
         style="fill:#ffca63;fill-opacity:1;stroke:#000000;stroke-width:0.889917;stroke-linejoin:round;stroke-dasharray:none"
         d="m 73.796679,64.575527 -0.035,-0.902865 c 0,0 -1.4646,0.125996 -1.42303,-1.724715 0,0 -0.10572,-0.969072 1.38549,-0.944501 v -5.42914 c 0,0 -0.28844,-1.693864 1.32863,-1.789897 0,0 1.00301,-0.147634 1.01952,1.847845 v 2.75617 c 0,0 -1.75003,5.263557 3.37134,4.932934 l 0.0705,2.364241 -5.69232,0.01101 z"
         id="path38"
         sodipodi:nodetypes="cccccccccccc" /><path
         style="fill:url(#linearGradient60);stroke:#000000;stroke-width:0.889917;stroke-linejoin:round;stroke-dasharray:none"
         d="m 65.200139,80.163888 c 0,0 2.83978,30.419512 -12.28397,30.616892 l -1.46922,0.0279 3.11373,-31.43849 10.02654,-0.362839 z"
         id="path29"
         sodipodi:nodetypes="cccccc" /><path
         style="fill:url(#radialGradient54);fill-opacity:1;stroke:#000000;stroke-width:0.889917;stroke-linejoin:round;stroke-dasharray:none"
         d="m 57.174269,71.048682 c 0,0 16.32857,14.717235 16.45007,-5.3615 l 6.08062,-0.05822 c 0,0 2.12926,13.879686 -4.62735,17.292941 0,0 -8.00294,4.613163 -16.90465,-1.925042 z"
         id="path28"
         sodipodi:nodetypes="cccccc" /><path
         style="fill:#000000;stroke:#000000;stroke-width:0.889917;stroke-linejoin:round;stroke-dasharray:none"
         d="m 43.183799,67.453872 c 0,0 -5.129849,1.445895 -4.084868,-3.805304 0,0 -4.074371,-2.245153 -0.619342,-6.446605 0,0 -1.421875,-4.521975 2.017455,-4.76414 0,0 -0.336628,-3.243438 4.061665,-2.987075 0,0 3.01343,-4.445803 7.14608,-0.67599 0,0 2.90845,-1.746486 3.98017,2.208978 0,0 3.56165,0.350963 1.56548,3.56628 0,0 2.94094,2.381114 1.00975,4.719911 0,0 1.93159,1.134657 -0.2894,3.923385"
         id="path26" /><path
         style="fill:url(#linearGradient52);fill-opacity:1;stroke:#000000;stroke-width:0.889917;stroke-linejoin:round;stroke-dasharray:none"
         d="m 55.696699,54.639019 h -12.37503 v 8.973238 c 0,0 -2.344117,-0.702882 -2.156968,1.570527 0.187156,2.273411 2.351768,1.662399 2.351768,1.662399 v 3.126995 h 12.37217 v -3.350186 c 0,0 2.45687,0.476823 2.38697,-2.089534 -0.0699,-2.566356 -2.56021,-1.244955 -2.56021,-1.244955 z"
         id="path1-5" /><path
         style="fill:none;fill-opacity:1;stroke:#ffffff;stroke-width:1.18761;stroke-linejoin:round;stroke-dasharray:none;stroke-opacity:1"
         d="m 43.845429,63.509576 v -8.373915 h 8.49969"
         id="path62" /><path
         style="fill:none;fill-opacity:1;stroke:#000000;stroke-width:0.889917;stroke-linejoin:round;stroke-dasharray:none"
         d="m 55.696759,54.639059 h -12.37503 v 8.973238 c 0,0 -2.344114,-0.702883 -2.156973,1.570529 0.187164,2.273408 2.351763,1.662397 2.351763,1.662397 v 3.126994 h 12.37217 v -3.350185 c 0,0 2.45688,0.476822 2.38698,-2.089533 -0.0699,-2.566357 -2.56021,-1.244954 -2.56021,-1.244954 z"
         id="path1-8" /><ellipse
         style="fill:#000000;stroke:#000000;stroke-width:0.889862;stroke-linejoin:round"
         id="path15-6"
         cx="47.78709"
         cy="62.555794"
         rx="0.72465014"
         ry="0.76858801" /><circle
         style="fill:#ffffff;stroke:#000000;stroke-width:0.889862;stroke-linejoin:round"
         id="path16-9"
         cx="54.93771"
         cy="59.010719"
         r="4.2531085" /><circle
         style="fill:#000000;stroke:#000000;stroke-width:0.889862;stroke-linejoin:round"
         id="path17-3"
         cx="55.04829"
         cy="59.016342"
         r="0.70935315" /><rect
         style="fill:#f9f9f9;stroke:#000000;stroke-width:0.889917;stroke-linejoin:round;stroke-dasharray:none"
         id="rect17-6"
         width="7.8106451"
         height="1.919078"
         x="42.875278"
         y="57.989086"
         ry="0.29843381" /><path
         style="fill:url(#linearGradient56);fill-opacity:1;stroke:none;stroke-width:0.889917;stroke-linejoin:round;stroke-dasharray:none"
         d="m 43.826499,70.027874 c 0,0 -11.962506,-0.0617 -11.962506,20.225888 v 16.070848 c 0,0 -0.361571,2.57372 3.049328,2.912 1.454835,0.14428 2.671267,0 2.671267,0 0,0 2.457557,-0.14067 2.478785,-3.11143 V 80.859479 c 0,0 -0.515635,-8.244558 3.763126,-10.831605 z"
         id="path4"
         sodipodi:nodetypes="cscscccc" /><path
         style="fill:none;fill-opacity:1;stroke:#ffffff;stroke-width:1.18761;stroke-linejoin:round;stroke-dasharray:none;stroke-opacity:1"
         d="m 42.471058,71.44596 c 0,0 -9.860104,0.915385 -10.115646,21.204616"
         id="path60" /><path
         style="fill:#2a7fff;fill-opacity:1;stroke:none;stroke-width:1.18761;stroke-linejoin:round;stroke-dasharray:none;stroke-opacity:1"
         d="M 31.690689,87.940681 H 34.5162 l -1.807358,20.493229 -0.701525,-1.66756 z"
         id="path66" /><path
         style="fill:none;fill-opacity:1;stroke:#000000;stroke-width:0.889917;stroke-linejoin:round;stroke-dasharray:none"
         d="m 43.991159,70.472779 c 0,0 -11.962496,-0.06171 -11.962496,20.225888 v 16.070853 c 0,0 -0.361572,2.57371 3.049319,2.91199 1.454844,0.14429 2.671268,0 2.671268,0 0,0 2.457556,-0.14067 2.478784,-3.11143 V 81.304383 c 0,0 -0.515635,-8.244558 3.763125,-10.831604 z"
         id="path4-4"
         sodipodi:nodetypes="cscscccc" /><path
         style="fill:url(#radialGradient58);fill-opacity:1;stroke:none;stroke-width:0.889917;stroke-linejoin:round;stroke-dasharray:none"
         d="m 44.118879,69.78598 11.42002,0.862734 c 0,0 7.97017,2.909809 2.14018,12.063239 0,0 -6.18643,7.755991 2.03097,13.677586 0,0 6.81476,4.266431 -0.80977,11.326091 0,0 -12.93826,10.13739 -20.305344,-8.652439 0,0 -4.583131,-25.388364 5.523944,-29.277211 z"
         id="path27"
         sodipodi:nodetypes="ccccccc" /><path
         style="fill:#002256;fill-opacity:1;stroke:none;stroke-width:1.18761;stroke-linejoin:round;stroke-dasharray:none;stroke-opacity:1"
         d="m 57.745149,95.099263 c 0,0 4.36935,16.135697 -9.56514,14.705087 0,0 9.67748,3.93267 14.13475,-6.02589 0,0 2.47039,-4.773422 -4.56961,-8.679197 z"
         id="path67" /><path
         style="fill:none;fill-opacity:1;stroke:#ffffff;stroke-width:1.18761;stroke-linejoin:round;stroke-dasharray:none;stroke-opacity:1"
         d="m 43.292579,70.817562 c 0,0 -7.717359,3.832334 -3.681908,28.923654"
         id="path61" /><path
         style="fill:none;stroke:#000000;stroke-width:0.889917;stroke-linejoin:round;stroke-dasharray:none"
         d="m 79.548659,63.469605 v 1.293143"
         id="path44" /><path
         style="fill:none;stroke:#000000;stroke-width:0.889917;stroke-linejoin:round;stroke-dasharray:none"
         d="m 49.986239,64.144216 c 0,0 1.97159,-0.528961 2.07439,1.537321 0,0 -0.35868,2.075701 -2.74336,0.678192 l -0.79967,0.581041"
         id="path46" /><path
         style="fill:#ffca63;fill-opacity:1;stroke:#000000;stroke-width:0.889917;stroke-linejoin:round;stroke-dasharray:none"
         d="m 33.327762,109.02871 v 2.2962 c 0,0 -1.905246,0.215 -1.638786,2.29211 0,0 -0.461806,2.24829 7.626998,1.61476 v -2.42739 h 1.732153 c 0,0 0.827922,-1.84477 -2.037385,-2.4147 v -2.02428 z"
         id="path47" /><path
         style="fill:none;fill-opacity:1;stroke:#000000;stroke-width:0.889917;stroke-linejoin:round;stroke-dasharray:none"
         d="m 44.302119,70.143674 11.42002,0.862734 c 0,0 7.97016,2.909809 2.14017,12.063239 0,0 -6.18642,7.755992 2.03098,13.677587 0,0 6.81476,4.266436 -0.80977,11.326096 0,0 -12.93827,10.13738 -20.305346,-8.652444 0,0 -4.583131,-25.388364 5.523946,-29.277212 z"
         id="path27-4"
         sodipodi:nodetypes="ccccccc" /><path
         style="fill:#000000;stroke:#000000;stroke-width:0.889917;stroke-linejoin:round;stroke-dasharray:none"
         d="m 43.266379,67.803663 v 4.248136 l 2.48309,0.139787 0.13979,1.374092 2.8208,1.525615 -0.13979,2.744091 1.89775,0.731957 v 1.645744 l 1.36481,1.938145 1.01753,-3.677261 1.97555,-1.344605 0.51983,-3.273743 1.11799,-1.128925 v -4.628448 z"
         id="path5" /><path
         style="fill:#ffe680;stroke:#000000;stroke-width:0.889862;stroke-linejoin:round"
         d="m 53.374709,69.584807 h -5.92462 v 2.97395 h 6.09207 z"
         id="path11-9" /><path
         style="fill:#ffe680;stroke:#000000;stroke-width:0.889862;stroke-linejoin:round;stroke-dasharray:none"
         d="m 52.453859,70.570854 c 0,0 -1.15845,1.525578 -3.68781,0.0322"
         id="path19-2" /><path
         style="fill:#ffca63;fill-opacity:1;stroke:#000000;stroke-width:0.889917;stroke-linejoin:round;stroke-dasharray:none"
         d="m 76.190869,58.600979 c 0,0 7.49524,-0.961977 3.76567,4.794445 0,0 -5.45641,1.03611 -3.76567,-4.794445 z"
         id="path48" /><ellipse
         style="fill:#000000;stroke:#000000;stroke-width:0.548411;stroke-linejoin:round"
         id="path15-6-2"
         cx="48.25462"
         cy="83.860336"
         rx="0.44659355"
         ry="0.47367191" /><ellipse
         style="fill:#000000;stroke:#000000;stroke-width:0.548411;stroke-linejoin:round"
         id="path15-6-2-3"
         cx="47.389606"
         cy="88.926048"
         rx="0.44659355"
         ry="0.47367191" /><ellipse
         style="fill:#000000;stroke:#000000;stroke-width:1.02399;stroke-linejoin:round"
         id="path15-6-2-3-2"
         cx="39.75108"
         cy="88.14576"
         rx="0.83387607"
         ry="0.88443667" /><ellipse
         style="fill:#000000;stroke:#000000;stroke-width:1.02399;stroke-linejoin:round"
         id="path15-6-2-3-2-5"
         cx="42.591206"
         cy="89.956429"
         rx="0.83387607"
         ry="0.88443667" /><ellipse
         style="fill:#000000;stroke:#000000;stroke-width:2.09857;stroke-linejoin:round"
         id="path15-6-2-3-2-5-6"
         cx="52.875866"
         cy="93.605927"
         rx="1.7089522"
         ry="1.8125713" /><ellipse
         style="fill:#000000;stroke:#000000;stroke-width:0.548411;stroke-linejoin:round"
         id="path15-6-2-3-9"
         cx="47.53027"
         cy="91.245796"
         rx="0.44659355"
         ry="0.47367191" /><ellipse
         style="fill:#000000;stroke:#000000;stroke-width:0.548411;stroke-linejoin:round"
         id="path15-6-2-3-9-4"
         cx="47.958317"
         cy="93.437675"
         rx="0.44659355"
         ry="0.47367191" /><ellipse
         style="fill:#000000;stroke:#000000;stroke-width:0.548411;stroke-linejoin:round"
         id="path15-6-2-3-9-4-5"
         cx="48.598011"
         cy="95.707787"
         rx="0.44659355"
         ry="0.47367191" /><ellipse
         style="fill:#000000;stroke:#000000;stroke-width:0.548411;stroke-linejoin:round"
         id="path15-6-2-3-9-4-5-1"
         cx="50.51585"
         cy="99.40799"
         rx="0.44659355"
         ry="0.47367191" /><path
         style="fill:none;fill-opacity:1;stroke:#000000;stroke-width:1.18761;stroke-linejoin:round;stroke-dasharray:none"
         d="m 46.061259,71.679215 c 0,0 -3.00455,3.123582 -3.770224,7.235895 0,0 -3.314693,-0.413346 -2.783133,8.703772"
         id="path49" /><path
         style="fill:none;fill-opacity:1;stroke:#000000;stroke-width:1.18761;stroke-linejoin:round;stroke-dasharray:none"
         d="m 42.471496,78.935859 c 0,0 3.241803,-0.141149 0.197669,10.283718"
         id="path50" /><path
         style="fill:none;fill-opacity:1;stroke:#000000;stroke-width:1.18761;stroke-linejoin:round;stroke-dasharray:none"
         d="m 55.179709,72.441702 c 0,0 4.75063,6.085382 -1.46758,12.874243 0,0 -3.30234,2.041718 -0.88688,6.621683"
         id="path51" /><path
         style="fill:#002256;fill-opacity:1;stroke:none;stroke-width:1.18761;stroke-linejoin:round;stroke-dasharray:none;stroke-opacity:1"
         d="m 60.608219,79.445554 c 0,0 3.83549,5.57691 15.22052,2.769809 0,0 -6.20213,5.475904 -16.19224,-0.403813"
         id="path68" /><path
         style="fill:none;fill-opacity:1;stroke:#000000;stroke-width:1.18761;stroke-linejoin:round;stroke-dasharray:none;stroke-opacity:1"
         d="m 56.087479,70.309741 c 0,0 9.14656,5.921569 1.33433,14.991533"
         id="path63"
         sodipodi:nodetypes="cc" /><path
         style="fill:none;fill-opacity:1;stroke:#000000;stroke-width:1.18761;stroke-linejoin:round;stroke-dasharray:none;stroke-opacity:1"
         d="m 64.748709,84.076166 c 0,0 0.3612,11.624428 -1.74577,17.065594"
         id="path64"
         sodipodi:nodetypes="cc" /><path
         style="fill:none;fill-opacity:1;stroke:#000000;stroke-width:1.18761;stroke-linejoin:round;stroke-dasharray:none;stroke-opacity:1"
         d="m 41.78513,104.22266 c 0,0 2.352859,4.39529 6.870739,5.93675"
         id="path65" /><path
         style="fill:none;stroke:#000000;stroke-width:0.889917;stroke-linejoin:round;stroke-dasharray:none"
         d="m 48.873069,75.978933 c 0,0 -11.362083,21.583396 8.66667,33.044117"
         id="path45"
         sodipodi:nodetypes="cc" /></g></g></svg>
