<?xml version="1.0" encoding="UTF-8" standalone="no"?>
<!-- Created with Inkscape (http://www.inkscape.org/) -->

<svg
   width="800"
   height="300"
   viewBox="0 0 211.66667 79.374999"
   version="1.1"
   id="svg1"
   inkscape:version="1.3.2 (091e20ef0f, 2023-11-25)"
   sodipodi:docname="drawing2.svg"
   xml:space="preserve"
   xmlns:inkscape="http://www.inkscape.org/namespaces/inkscape"
   xmlns:sodipodi="http://sodipodi.sourceforge.net/DTD/sodipodi-0.dtd"
   xmlns:xlink="http://www.w3.org/1999/xlink"
   xmlns="http://www.w3.org/2000/svg"
   xmlns:svg="http://www.w3.org/2000/svg"><sodipodi:namedview
     id="namedview1"
     pagecolor="#ffffff"
     bordercolor="#000000"
     borderopacity="0.25"
     inkscape:showpageshadow="2"
     inkscape:pageopacity="0.0"
     inkscape:pagecheckerboard="0"
     inkscape:deskcolor="#d1d1d1"
     inkscape:document-units="mm"
     inkscape:zoom="0.90509668"
     inkscape:cx="289.47184"
     inkscape:cy="103.30388"
     inkscape:window-width="1920"
     inkscape:window-height="1003"
     inkscape:window-x="0"
     inkscape:window-y="0"
     inkscape:window-maximized="1"
     inkscape:current-layer="layer1"
     showguides="false" /><defs
     id="defs1"><linearGradient
       id="linearGradient16"
       inkscape:collect="always"><stop
         style="stop-color:#1c5dbc;stop-opacity:1;"
         offset="0"
         id="stop17" /><stop
         style="stop-color:#10356c;stop-opacity:1;"
         offset="1"
         id="stop18" /></linearGradient><linearGradient
       id="linearGradient15"
       inkscape:collect="always"><stop
         style="stop-color:#1b58b4;stop-opacity:1;"
         offset="0"
         id="stop15" /><stop
         style="stop-color:#2a73e0;stop-opacity:1;"
         offset="1"
         id="stop16" /></linearGradient><linearGradient
       id="linearGradient13"
       inkscape:collect="always"><stop
         style="stop-color:#1958b7;stop-opacity:1;"
         offset="0"
         id="stop13" /><stop
         style="stop-color:#000000;stop-opacity:1;"
         offset="1"
         id="stop14" /></linearGradient><linearGradient
       inkscape:collect="always"
       xlink:href="#linearGradient24"
       id="linearGradient1"
       gradientUnits="userSpaceOnUse"
       x1="90.328926"
       y1="25.313448"
       x2="108.20871"
       y2="25.313448"
       gradientTransform="matrix(0.85854853,0,0,0.85854853,27.441868,-0.51589201)" /><linearGradient
       id="linearGradient24"
       inkscape:collect="always"><stop
         style="stop-color:#ffe680;stop-opacity:1;"
         offset="0"
         id="stop24" /><stop
         style="stop-color:#ff8c23;stop-opacity:1;"
         offset="1"
         id="stop25" /></linearGradient><linearGradient
       inkscape:collect="always"
       xlink:href="#linearGradient13"
       id="linearGradient14"
       x1="180.78873"
       y1="192.84624"
       x2="276.20605"
       y2="192.84624"
       gradientUnits="userSpaceOnUse"
       gradientTransform="matrix(0.25684485,0,0,0.25684485,50.113049,-1.925378)" /><radialGradient
       inkscape:collect="always"
       xlink:href="#linearGradient15"
       id="radialGradient16"
       cx="166.15434"
       cy="156.23016"
       fx="166.15434"
       fy="156.23016"
       r="47.438351"
       gradientTransform="matrix(0.25684485,0,0,0.21807717,50.113049,4.131302)"
       gradientUnits="userSpaceOnUse" /><linearGradient
       inkscape:collect="always"
       xlink:href="#linearGradient16"
       id="linearGradient18"
       x1="264.05035"
       y1="194.29417"
       x2="309.96921"
       y2="194.29417"
       gradientUnits="userSpaceOnUse"
       gradientTransform="matrix(0.25684485,0,0,0.25684485,50.113049,-1.925378)" /></defs><g
     inkscape:label="Layer 1"
     inkscape:groupmode="layer"
     id="layer1"><path
       style="fill:url(#linearGradient14);stroke:#000000;stroke-width:1.15581;stroke-linejoin:round;stroke-opacity:1"
       d="m 120.47727,64.932954 c 0,0 -23.351666,3.108121 -23.351666,-12.782976 V 35.027827 l 8.652616,-4.995591 z"
       id="path7" /><path
       style="fill:#1c5dbc;fill-opacity:1;stroke:none;stroke-width:1.15581;stroke-linejoin:round;stroke-opacity:1"
       d="m 117.82748,28.15582 h -12.94495 v 26.686468 c 0,0 0.0249,10.025129 16.50164,10.025129 V 28.631984 Z"
       id="path3" /><path
       style="fill:#5f93e3;fill-opacity:1;stroke:none;stroke-width:1.15581;stroke-linejoin:round;stroke-opacity:1"
       d="m 107.0931,60.044468 c 0,0 14.64635,7.026952 14.49003,-15.203609 l -0.36398,20.040266 c 0,0 -9.88596,0.688059 -14.12605,-4.836657 z"
       id="path22" /><path
       style="fill:#000000;stroke:#000000;stroke-width:0.770942;stroke-linejoin:round"
       d="m 118.08271,26.057925 c 0,0 6.10735,-0.764252 3.5696,-5.045549 0,0 5.0256,-3.068568 0.67702,-5.772546 0,0 1.27719,-5.5974423 -4.5856,-5.4857803 0,0 0.12239,-3.965947 -4.77914,-2.35983 0,0 -6.5728,-2.758258 -7.47397,3.4724943 0,0 -4.50086,2.492357 -1.64053,5.660322 0,0 -2.02992,1.699449 -0.75287,2.99878 0,0 -2.64533,6.960638 4.16713,6.246965"
       id="path12-9"
       sodipodi:nodetypes="ccccccccc" /><path
       style="fill:url(#linearGradient1);stroke:none;stroke-width:0.770942;stroke-linejoin:round"
       d="m 107.41894,13.061714 h 10.6996 v 8.266314 c 0,0 1.67167,-1.00622 1.83184,0.994095 0.16016,2.000315 -1.94195,0.338791 -1.94195,0.338791 v 6.711231 h -11.04656 v -5.606604 c 0,0 -2.05403,0.113775 -1.4822,-2.331915 0.57184,-2.445689 1.74725,0.131683 1.74725,0.131683 z"
       id="path9-1" /><path
       style="fill:none;fill-opacity:1;stroke:#ffffff;stroke-width:0.85855;stroke-linejoin:round;stroke-dasharray:none;stroke-opacity:1"
       d="m 107.59743,22.003504 v -8.521266 h 5.76141"
       id="path31-2" /><path
       style="fill:none;stroke:#000000;stroke-width:0.770942;stroke-linejoin:round"
       d="m 107.44068,13.237586 h 10.6996 v 8.266313 c 0,0 1.67167,-1.006219 1.83183,0.994096 0.16017,2.000314 -1.94194,0.33879 -1.94194,0.33879 v 6.711231 H 106.9836 v -5.606603 c 0,0 -2.05402,0.113774 -1.48219,-2.331914 0.57185,-2.445691 1.74724,0.131681 1.74724,0.131681 z"
       id="path9-0-7" /><path
       style="fill:none;fill-opacity:1;stroke:#000000;stroke-width:1.15581;stroke-linejoin:round;stroke-opacity:1"
       d="m 117.73175,28.200288 h -12.94494 v 26.686468 c 0,0 0.0249,10.02513 16.50164,10.02513 V 28.676452 Z"
       id="path3-6" /><path
       style="fill:#000000;stroke:#000000;stroke-width:0.770942;stroke-linejoin:round"
       d="m 118.04597,25.230674 -11.01809,-0.121532 v 4.522842 l 1.69452,1.062051 0.5036,2.804079 1.11604,0.712544 0.16215,1.519976 1.03384,2.801117 2.45006,-3.727944 2.1891,-0.546042 1.02878,-2.625023 0.88201,-0.429869 z"
       id="path10-0"
       sodipodi:nodetypes="ccccccccccccc" /><path
       style="fill:#ffe680;stroke:#000000;stroke-width:0.770942;stroke-linejoin:round"
       d="m 110.00703,26.570466 h 5.1329 v 2.576524 h -5.27798 z"
       id="path11-9-8" /><path
       style="fill:none;fill-opacity:1;stroke:#ffffff;stroke-width:0.85855;stroke-linejoin:round;stroke-dasharray:none;stroke-opacity:1"
       d="m 111.2848,21.134545 0.1669,1.142616 c 0,0 -1.16288,0.133378 -0.96701,1.069922"
       id="path32-3" /><path
       style="fill:none;stroke:#000000;stroke-width:0.770942;stroke-linejoin:round"
       d="m 110.93145,21.149962 0.0721,0.897238 c 0,0 -0.88667,-0.240312 -0.83451,0.9893 0,0 -0.20694,1.427984 1.8578,0.726504 0,0 1.74146,0.920783 1.37581,-0.398075"
       id="path13-6" /><ellipse
       style="fill:#000000;stroke:#000000;stroke-width:0.770942;stroke-linejoin:round"
       id="path15-6-9"
       cx="108.74311"
       cy="19.992815"
       rx="0.62781239"
       ry="0.66587871" /><rect
       style="fill:#f9f9f9;stroke:#000000;stroke-width:0.770942;stroke-linejoin:round"
       id="rect17-1"
       width="5.2177649"
       height="1.7479495"
       x="106.44461"
       y="15.636134"
       ry="0.27182177" /><rect
       style="fill:#f9f9f9;stroke:#000000;stroke-width:0.770942;stroke-linejoin:round"
       id="rect17-1-5"
       width="5.2177649"
       height="1.7479495"
       x="113.7252"
       y="15.621106"
       ry="0.27182177" /><circle
       style="fill:#ffffff;stroke:#000000;stroke-width:0.770942;stroke-linejoin:round"
       id="path16-2"
       cx="113.94036"
       cy="16.56389"
       r="3.6847496" /><circle
       style="fill:#000000;stroke:#000000;stroke-width:0.770942;stroke-linejoin:round"
       id="path17-6"
       cx="114.03618"
       cy="16.568762"
       r="0.61455965" /><path
       style="fill:#ffe680;stroke:#000000;stroke-width:0.770942;stroke-linejoin:round;stroke-dasharray:none"
       d="m 110.95365,27.482964 c 0,0 1.00364,1.32171 3.19499,0.02793"
       id="path19-8" /><ellipse
       style="fill:#000000;stroke:#000000;stroke-width:0.533723;stroke-linejoin:round"
       id="path15-6-2-8"
       cx="110.35794"
       cy="48.59597"
       rx="0.43463281"
       ry="0.46098602" /><ellipse
       style="fill:#000000;stroke:#000000;stroke-width:0.533723;stroke-linejoin:round"
       id="path15-6-2-8-3"
       cx="110.90078"
       cy="52.138428"
       rx="0.43463281"
       ry="0.46098602" /><ellipse
       style="fill:#000000;stroke:#000000;stroke-width:0.533723;stroke-linejoin:round"
       id="path15-6-2-8-3-6"
       cx="111.32684"
       cy="54.077652"
       rx="0.43463281"
       ry="0.46098602" /><ellipse
       style="fill:#000000;stroke:#000000;stroke-width:0.533723;stroke-linejoin:round"
       id="path15-6-2-8-3-6-6"
       cx="111.88096"
       cy="55.967705"
       rx="0.43463281"
       ry="0.46098602" /><ellipse
       style="fill:#000000;stroke:#000000;stroke-width:0.533723;stroke-linejoin:round"
       id="path15-6-2-8-3-6-6-4"
       cx="112.41814"
       cy="57.774834"
       rx="0.43463281"
       ry="0.46098602" /><ellipse
       style="fill:#000000;stroke:#000000;stroke-width:0.533723;stroke-linejoin:round"
       id="path15-6-2-8-3-6-6-4-6"
       cx="113.85854"
       cy="61.29533"
       rx="0.43463281"
       ry="0.46098602" /><ellipse
       style="fill:#000000;stroke:#000000;stroke-width:0.996567;stroke-linejoin:round"
       id="path15-6-2-3-2-5-4"
       cx="107.62598"
       cy="47.135365"
       rx="0.81154311"
       ry="0.8607496" /><ellipse
       style="fill:#000000;stroke:#000000;stroke-width:0.996567;stroke-linejoin:round"
       id="path15-6-2-3-2-5-4-4"
       cx="109.32101"
       cy="44.469891"
       rx="0.81154311"
       ry="0.8607496" /><path
       style="fill:#ffca63;fill-opacity:1;stroke:#000000;stroke-width:1.15581;stroke-linejoin:round;stroke-opacity:1"
       d="m 123.40859,67.556726 v 1.300111 c 0,0 -2.82514,0.417689 -2.33517,2.246218 0.48995,1.828538 2.31247,1.314534 2.31247,1.314534 v 2.00948 c 0,0 6.4845,1.714993 6.59068,-3.543537 l -0.82905,-4.781377"
       id="path9"
       sodipodi:nodetypes="ccscccc" /><path
       style="fill:url(#linearGradient18);stroke:none;stroke-width:1.15581;stroke-linejoin:round;stroke-opacity:1"
       d="m 117.93303,28.243684 c 0,0 11.65272,-1.29693 11.65272,12.674266 v 21.065025 c 0,0 1.18783,5.676938 -3.32474,5.676938 0,0 -5.26573,1.255579 -5.26573,-5.920663 V 31.967303 c 0,0 0.92943,-3.067526 -3.06225,-3.723619 z"
       id="path2" /><path
       style="fill:#ffca63;fill-opacity:1;stroke:#000000;stroke-width:1.15581;stroke-linejoin:round;stroke-opacity:1"
       d="m 82.769802,29.85385 c 0,0 -1.7527,0.452108 -1.770447,-5.687494 0,0 -0.485984,-5.914941 2.833778,-5.844111 0,0 3.112249,-0.894977 3.112249,3.291895 v 5.113379 l 2.905046,-0.160135 c 0,0 0.0654,2.495828 -2.495833,2.495828 v 2.857533"
       id="path8"
       sodipodi:nodetypes="cccscccc" /><path
       style="fill:url(#radialGradient16);stroke:none;stroke-width:1.15581;stroke-linejoin:round;stroke-opacity:1"
       d="m 104.97324,27.873604 c 0,0 -8.003023,-0.849956 -8.003023,9.368439 0,0 0.10235,4.490062 -4.490068,4.490062 0,0 -4.71208,0.864694 -4.71208,-6.535325 0,0 0.9921,-5.601367 -3.233952,-5.601367 0,0 -3.76587,-1.227627 -3.76587,4.406481 0,0 -2.013726,11.302632 8.088381,14.009482 0,0 9.164411,2.977301 13.833772,-5.11026 0,0 2.38101,-4.632631 2.27483,-8.461841 z"
       id="path6" /><path
       style="fill:none;fill-opacity:1;stroke:#000000;stroke-width:1.15581;stroke-linejoin:round;stroke-opacity:1"
       d="m 121.62536,64.787158 c 0,0 -9.93968,2.467095 -9.93968,-27.15786"
       id="path10" /><path
       style="fill:none;fill-opacity:1;stroke:#fefefe;stroke-width:1.15581;stroke-linejoin:round;stroke-opacity:1"
       d="m 92.699741,42.605421 c 0,0 4.807252,-0.02468 4.992237,-5.994754 0,0 0.309837,-7.178318 7.363722,-7.85046"
       id="path11" /><path
       style="fill:#1c4f9d;fill-opacity:1;stroke:none;stroke-width:1.15581;stroke-linejoin:round;stroke-opacity:1"
       d="m 83.811095,30.486862 c 0,0 -3.865715,15.610917 7.37969,18.705975 0,0 -14.723922,-2.202875 -9.881823,-17.584835 l 1.26133,-1.63567 z"
       id="path21" /><path
       style="fill:none;fill-opacity:1;stroke:#000000;stroke-width:1.15581;stroke-linejoin:round;stroke-opacity:1"
       d="m 104.93359,28.202447 c 0,0 -8.003018,-0.849953 -8.003018,9.368442 0,0 0.102349,4.490062 -4.490065,4.490062 0,0 -4.71208,0.864694 -4.71208,-6.535325 0,0 0.992107,-5.601367 -3.233952,-5.601367 0,0 -3.765869,-1.227627 -3.765869,4.406481 0,0 -2.013726,11.302633 8.08838,14.009482 0,0 9.164416,2.977302 13.833764,-5.11026 0,0 2.38103,-4.632631 2.27485,-8.461841 z"
       id="path6-1" /><path
       style="fill:none;fill-opacity:1;stroke:#ffffff;stroke-width:1.15581;stroke-linejoin:round;stroke-opacity:1"
       d="m 122.21269,38.898307 v 23.097932 c 0,0 -0.0383,5.576759 5.91026,5.199111"
       id="path12" /><path
       style="fill:none;fill-opacity:1;stroke:#000000;stroke-width:1.15581;stroke-linejoin:round;stroke-opacity:1"
       d="m 118.2981,28.131488 c 0,0 11.65274,-1.29693 11.65274,12.674267 V 61.87078 c 0,0 1.18784,5.676936 -3.32474,5.676936 0,0 -5.26575,1.255578 -5.26575,-5.920661 V 31.855108 c 0,0 0.92945,-3.067527 -3.06225,-3.72362 z"
       id="path2-1" /><path
       style="fill:none;fill-opacity:1;stroke:#000000;stroke-width:1.15581;stroke-linejoin:round;stroke-opacity:1"
       d="m 107.884,28.927638 v 9.278254 c 0,0 -2.82645,3.389561 -0.67398,7.849633"
       id="path18" /><path
       style="fill:none;fill-opacity:1;stroke:#000000;stroke-width:1.15581;stroke-linejoin:round;stroke-opacity:1"
       d="m 107.8532,38.349016 c 0,0 2.85417,2.377415 1.51559,5.693801"
       id="path19" /><path
       style="fill:none;fill-opacity:1;stroke:#000000;stroke-width:1.15581;stroke-linejoin:round;stroke-opacity:1"
       d="m 117.18396,32.005146 c 0,0 1.46437,5.533733 -0.6006,8.343009 0,0 -3.82818,3.487643 -0.78497,6.000978"
       id="path20" /><ellipse
       style="fill:#000000;stroke:#000000;stroke-width:2.04237;stroke-linejoin:round"
       id="path15-6-2-3-2-5-6-3"
       cx="116.98862"
       cy="47.2677"
       rx="1.6631827"
       ry="1.7640269" /></g></svg>
