<?xml version="1.0" encoding="UTF-8" standalone="no"?>
<!-- Created with Inkscape (http://www.inkscape.org/) -->

<svg
   width="800"
   height="300"
   viewBox="0 0 211.66666 79.375"
   version="1.1"
   id="svg1"
   xml:space="preserve"
   inkscape:version="1.3.2 (091e20ef0f, 2023-11-25)"
   sodipodi:docname="drawing.svg"
   xmlns:inkscape="http://www.inkscape.org/namespaces/inkscape"
   xmlns:sodipodi="http://sodipodi.sourceforge.net/DTD/sodipodi-0.dtd"
   xmlns:xlink="http://www.w3.org/1999/xlink"
   xmlns="http://www.w3.org/2000/svg"
   xmlns:svg="http://www.w3.org/2000/svg"><sodipodi:namedview
     id="namedview1"
     pagecolor="#ffffff"
     bordercolor="#000000"
     borderopacity="0.25"
     inkscape:showpageshadow="2"
     inkscape:pageopacity="0.0"
     inkscape:pagecheckerboard="0"
     inkscape:deskcolor="#d1d1d1"
     inkscape:document-units="mm"
     inkscape:zoom="1.9981322"
     inkscape:cx="312.79212"
     inkscape:cy="197.43439"
     inkscape:window-width="1920"
     inkscape:window-height="1003"
     inkscape:window-x="0"
     inkscape:window-y="0"
     inkscape:window-maximized="1"
     inkscape:current-layer="layer1" /><defs
     id="defs1"><linearGradient
       id="linearGradient38"
       inkscape:collect="always"><stop
         style="stop-color:#2a7fff;stop-opacity:1;"
         offset="0"
         id="stop38" /><stop
         style="stop-color:#001430;stop-opacity:1;"
         offset="1"
         id="stop39" /></linearGradient><linearGradient
       id="linearGradient29"
       inkscape:collect="always"><stop
         style="stop-color:#003688;stop-opacity:1;"
         offset="0"
         id="stop30" /><stop
         style="stop-color:#7c7cff;stop-opacity:1;"
         offset="1"
         id="stop31" /></linearGradient><linearGradient
       id="linearGradient28"
       inkscape:collect="always"><stop
         style="stop-color:#2a7fff;stop-opacity:1;"
         offset="0"
         id="stop28" /><stop
         style="stop-color:#0051b0;stop-opacity:1;"
         offset="1"
         id="stop29" /></linearGradient><linearGradient
       id="linearGradient24"
       inkscape:collect="always"><stop
         style="stop-color:#ffe680;stop-opacity:1;"
         offset="0"
         id="stop24" /><stop
         style="stop-color:#ff8c23;stop-opacity:1;"
         offset="1"
         id="stop25" /></linearGradient><linearGradient
       id="linearGradient19"
       inkscape:collect="always"><stop
         style="stop-color:#2a7fff;stop-opacity:1;"
         offset="0"
         id="stop19" /><stop
         style="stop-color:#003074;stop-opacity:1;"
         offset="1"
         id="stop20" /></linearGradient><radialGradient
       inkscape:collect="always"
       xlink:href="#linearGradient19"
       id="radialGradient20"
       cx="96.001261"
       cy="45.181403"
       fx="96.001261"
       fy="45.181403"
       r="13.190209"
       gradientTransform="matrix(1,0,0,1.0995077,0,-4.4958965)"
       gradientUnits="userSpaceOnUse" /><linearGradient
       inkscape:collect="always"
       xlink:href="#linearGradient24"
       id="linearGradient25"
       x1="90.328927"
       y1="25.313447"
       x2="108.20871"
       y2="25.313447"
       gradientUnits="userSpaceOnUse" /><radialGradient
       inkscape:collect="always"
       xlink:href="#linearGradient28"
       id="radialGradient29"
       cx="106.84805"
       cy="44.849482"
       fx="106.84805"
       fy="44.849482"
       r="14.068069"
       gradientTransform="matrix(1,0,0,1.0194882,0,-0.87403567)"
       gradientUnits="userSpaceOnUse" /><linearGradient
       inkscape:collect="always"
       xlink:href="#linearGradient29"
       id="linearGradient31"
       x1="109.11828"
       y1="50.650754"
       x2="120.43058"
       y2="50.650754"
       gradientUnits="userSpaceOnUse" /><linearGradient
       inkscape:collect="always"
       xlink:href="#linearGradient38"
       id="linearGradient39"
       x1="91.984781"
       y1="50.711737"
       x2="115.94983"
       y2="50.711737"
       gradientUnits="userSpaceOnUse" /></defs><g
     inkscape:label="Layer 1"
     inkscape:groupmode="layer"
     id="layer1"><path
       style="fill:#000000;stroke:#000000;stroke-width:0.897964;stroke-linejoin:round"
       d="m 92.95279,30.451318 c 0,0 -7.113582,-0.890168 -4.157716,-5.876838 0,0 -5.853601,-3.574135 -0.788559,-6.723611 0,0 -1.487622,-6.519657 5.341087,-6.389599 0,0 -0.142538,-4.6193624 5.566549,-2.7486272 0,0 7.655699,-3.2126987 8.705359,4.0446102 0,0 5.2424,2.90299 1.91081,6.592897 0,0 2.36436,1.979445 0.8769,3.492849 0,0 3.08117,8.10745 -4.85369,7.276195"
       id="path12"
       sodipodi:nodetypes="ccccccccc" /><path
       style="fill:url(#linearGradient39);stroke:#000000;stroke-width:0.897964;stroke-linejoin:round"
       d="m 92.433763,30.528839 v 29.101439 c 0,0 0.05115,14.981961 23.067087,10.407908 L 109.3837,30.521385 Z"
       id="path2"
       sodipodi:nodetypes="ccccc" /><path
       style="fill:none;fill-opacity:1;stroke:#000000;stroke-width:1;stroke-linejoin:round;stroke-dasharray:none;stroke-opacity:1"
       d="m 100.62375,44.143443 v 17.454255 c 0,0 1.24993,11.805653 14.68931,8.462941"
       id="path25" /><path
       style="fill:url(#linearGradient31);stroke:#000000;stroke-width:0.897964;stroke-linejoin:round;fill-opacity:1"
       d="m 109.56808,31.240616 v 30.541328 c 0,0 -0.18392,8.557236 5.62798,8.27216 0,0 4.78554,-0.137941 4.78554,-8.850851 V 41.107957 Z"
       id="path6" /><path
       style="fill:#ffe680;stroke:#000000;stroke-width:0.897964;stroke-linejoin:round"
       d="m 90.715675,49.567834 c 0,0 0.590107,-5.346974 5.418501,-2.571768 l -1.194497,5.556218 z"
       id="path7" /><path
       id="path3"
       style="fill:url(#radialGradient29);stroke:none;stroke-width:0.897964;stroke-linejoin:round"
       d="m 109.38188,30.507252 0.008,20.96997 -6.37724,6.721205 c 13.40249,4.489791 16.99578,-7.696964 16.99578,-7.696964 4.73991,-12.164678 -10.6268,-19.994211 -10.6268,-19.994211 z M 96.556769,46.670847 c -2.978733,-0.04922 -3.776787,4.443608 -3.776787,4.443608 l 11.017178,7.013999 -0.2947,-8.258543 -5.747086,-2.958694 c -0.434148,-0.159769 -0.832795,-0.234326 -1.198605,-0.24037 z"
       sodipodi:nodetypes="cccccsccccs" /><path
       style="fill:#002256;fill-opacity:1;stroke:none;stroke-width:1;stroke-linejoin:round;stroke-dasharray:none;stroke-opacity:1"
       d="m 109.64481,34.666695 c 0,0 15.44526,6.991633 6.98956,21.22447 0,0 13.66723,-14.556375 -7.21767,-25.314344 z"
       id="path33" /><path
       style="fill:none;fill-opacity:1;stroke:#ffffff;stroke-width:1;stroke-linejoin:round;stroke-dasharray:none;stroke-opacity:1"
       d="m 109.58155,31.445829 c 11.01735,7.41215 11.5177,12.702588 10.66378,17.719815"
       id="path39"
       sodipodi:nodetypes="cc" /><path
       id="path3-2"
       style="fill:none;stroke:#000000;stroke-width:0.897964;stroke-linejoin:round"
       d="m 109.38187,30.506982 0.008,20.96997 -6.37724,6.721205 c 13.40249,4.489791 16.99578,-7.696964 16.99578,-7.696964 4.73991,-12.164678 -10.6268,-19.994211 -10.6268,-19.994211 z M 96.556757,46.670577 c -2.97873,-0.04922 -3.77678,4.443608 -3.77678,4.443608 l 11.017173,7.013999 -0.2947,-8.258543 -5.747083,-2.958694 c -0.43415,-0.159769 -0.8328,-0.234326 -1.19861,-0.24037 z"
       sodipodi:nodetypes="cccccsccccs" /><path
       style="fill:#003e9a;fill-opacity:1;stroke:#000000;stroke-width:0.897964;stroke-linejoin:round;stroke-dasharray:none"
       d="m 109.71556,41.69816 c 0,0 7.48153,2.016637 0.0681,10.898458"
       id="path18"
       sodipodi:nodetypes="cc" /><path
       style="fill:#ffe680;stroke:#000000;stroke-width:0.897964;stroke-linejoin:round;stroke-dasharray:none"
       d="m 106.01884,47.819472 c 0,0 4.89069,-4.798747 6.66642,2.033513 l -2.44307,2.344396 -2.44951,2.449513"
       id="path8" /><path
       style="fill:url(#linearGradient25);stroke:none;stroke-width:0.897964;stroke-linejoin:round"
       d="m 93.153827,15.814605 h 12.462423 v 9.628243 c 0,0 1.9471,-1.172001 2.13365,1.157879 0.18655,2.32988 -2.2619,0.394608 -2.2619,0.394608 V 34.81229 H 92.621443 v -6.530332 c 0,0 -2.392445,0.13252 -1.726391,-2.716113 0.666056,-2.848634 2.035116,0.153377 2.035116,0.153377 z"
       id="path9" /><path
       style="fill:none;fill-opacity:1;stroke:#ffffff;stroke-width:1;stroke-linejoin:round;stroke-dasharray:none;stroke-opacity:1"
       d="m 93.361728,26.229614 v -9.925201 h 6.710642"
       id="path31" /><path
       style="fill:none;stroke:#000000;stroke-width:0.897964;stroke-linejoin:round"
       d="m 93.179145,16.019453 h 12.462425 v 9.628243 c 0,0 1.9471,-1.172001 2.13365,1.157879 0.18655,2.32988 -2.2619,0.394608 -2.2619,0.394608 v 7.816955 H 92.646761 v -6.530332 c 0,0 -2.392445,0.13252 -1.726391,-2.716113 0.666056,-2.848634 2.035116,0.153377 2.035116,0.153377 z"
       id="path9-0" /><path
       style="fill:#000000;stroke:#000000;stroke-width:0.897964;stroke-linejoin:round"
       d="m 92.878438,29.737395 12.833392,-0.141554 v 5.268012 l -1.9737,1.237029 -0.58658,3.266069 -1.29992,0.829942 -0.18885,1.770401 -1.20418,3.262619 -2.853734,-4.342146 -2.549759,-0.636005 -1.198277,-3.057515 -1.027327,-0.50069 z"
       id="path10"
       sodipodi:nodetypes="ccccccccccccc" /><path
       style="fill:#ffe680;stroke:#000000;stroke-width:0.897964;stroke-linejoin:round"
       d="m 96.168318,31.549012 h 5.978572 v 3.001025 h -6.147548 z"
       id="path11" /><path
       style="fill:none;fill-opacity:1;stroke:#ffffff;stroke-width:1;stroke-linejoin:round;stroke-dasharray:none;stroke-opacity:1"
       d="m 99.244106,25.217488 0.194395,1.330869 c 0,0 -1.35446,0.155353 -1.126323,1.246199"
       id="path32" /><path
       style="fill:none;stroke:#000000;stroke-width:0.897964;stroke-linejoin:round"
       d="m 98.832544,25.235445 0.08405,1.045063 c 0,0 -1.032749,-0.279904 -0.971991,1.152294 0,0 -0.241038,1.663252 2.163887,0.846201 0,0 2.02838,1.072487 1.60249,-0.463661"
       id="path13" /><path
       style="fill:none;stroke:#000000;stroke-width:0.897964;stroke-linejoin:round"
       d="m 96.252561,27.689882 c 0,0 -0.159534,1.994964 1.934369,0.496257"
       id="path14" /><ellipse
       style="fill:#000000;stroke:#000000;stroke-width:0.897964;stroke-linejoin:round"
       id="path15"
       cx="95.754501"
       cy="23.887651"
       rx="0.73124862"
       ry="0.77558655" /><circle
       style="fill:#ffffff;stroke:#000000;stroke-width:0.897964;stroke-linejoin:round"
       id="path16"
       cx="102.3372"
       cy="19.893784"
       r="4.2918363" /><circle
       style="fill:#000000;stroke:#000000;stroke-width:0.897964;stroke-linejoin:round"
       id="path17"
       cx="102.44881"
       cy="19.899456"
       r="0.71581239" /><rect
       style="fill:#f9f9f9;stroke:#000000;stroke-width:0.897964;stroke-linejoin:round"
       id="rect17"
       width="6.0774264"
       height="2.0359354"
       x="92.018967"
       y="18.813173"
       ry="0.31660616" /><path
       style="fill:url(#radialGradient20);stroke:none;stroke-width:0.897964;stroke-linejoin:round"
       d="m 92.407157,30.763201 c 0,0 -9.594783,4.042161 -9.594783,15.424688 0,0 -0.450069,13.948488 15.261082,13.484947 0,0 7.590824,0.01 11.118014,-8.669558 l -3.64516,-4.057839 c 0,0 -2.05812,6.324827 -9.776674,5.364768 0,0 -8.508409,-1.133809 -3.363596,-10.389665 0.06541,-0.0084 0.11733,-7.503884 0.05839,-11.241875"
       id="path1"
       sodipodi:nodetypes="cccccccc" /><path
       style="fill:#2a7fff;stroke:none;stroke-width:1;stroke-linejoin:round;stroke-dasharray:none;fill-opacity:1"
       d="m 92.328795,31.312331 c 0,0 -12.522956,4.164891 -8.550497,20.286975 0,0 -2.078039,-14.546807 8.903382,-18.061244 z"
       id="path20" /><path
       style="fill:none;fill-opacity:1;stroke:#ffffff;stroke-width:1;stroke-linejoin:round;stroke-dasharray:none;stroke-opacity:1"
       d="m 82.792102,47.561757 c 0,0 -0.440943,-11.220374 9.357295,-16.182859"
       id="path21"
       sodipodi:nodetypes="cc" /><path
       style="fill:#2a7fff;fill-opacity:1;stroke:none;stroke-width:1;stroke-linejoin:round;stroke-dasharray:none;stroke-opacity:1"
       d="m 90.858667,46.823751 -0.983681,5.161269 c 0,0 11.517804,8.022892 15.572314,-4.493958 0,0 -3.57465,6.545264 -9.390239,4.980223 0,0 -5.328053,-0.78545 -5.198394,-5.647534 z"
       id="path22" /><path
       style="fill:none;fill-opacity:1;stroke:#ffffff;stroke-width:1;stroke-linejoin:round;stroke-dasharray:none;stroke-opacity:1"
       d="m 90.842993,49.658076 c 0,0 6.150978,9.212305 14.942757,-2.003687"
       id="path23" /><path
       style="fill:#002256;fill-opacity:1;stroke:none;stroke-width:1;stroke-linejoin:round;stroke-dasharray:none;stroke-opacity:1"
       d="m 83.099801,50.093081 2.693775,-2.256118 c 0,0 3.621305,16.539763 19.639744,9.036944 0,0 -14.891373,10.047451 -22.333519,-6.780826 z"
       id="path24"
       sodipodi:nodetypes="cccc" /><path
       style="fill:none;stroke:#000000;stroke-width:0.897964;stroke-linejoin:round"
       d="m 92.407121,30.762763 c 0,0 -9.594783,4.042161 -9.594783,15.424688 0,0 -0.450069,13.948488 15.261082,13.484947 0,0 7.59082,0.01 11.11801,-8.669558 l -3.64516,-4.057839 c 0,0 -2.05812,6.324827 -9.77667,5.364768 0,0 -8.508409,-1.133809 -3.363596,-10.389665 0.06541,-0.0084 0.11733,-7.503884 0.05839,-11.241875"
       id="path1-6"
       sodipodi:nodetypes="cccccccc" /><path
       style="fill:#ffe680;stroke:#000000;stroke-width:0.897964;stroke-linejoin:round;stroke-dasharray:none"
       d="m 97.270899,32.611851 c 0,0 1.169002,1.539473 3.721391,0.03252"
       id="path19" /><path
       style="fill:none;fill-opacity:1;stroke:#000000;stroke-width:1;stroke-linejoin:round;stroke-dasharray:none;stroke-opacity:1"
       d="m 104.35052,57.844292 c 0,0 11.67143,3.917374 15.91751,-9.135107"
       id="path34" /><path
       style="fill:none;fill-opacity:1;stroke:#000000;stroke-width:1;stroke-linejoin:round;stroke-dasharray:none;stroke-opacity:1"
       d="m 92.930452,49.986932 c 0,0 3.787516,3.952288 9.995738,-0.242856"
       id="path35" /><path
       style="fill:none;fill-opacity:1;stroke:#000000;stroke-width:1;stroke-linejoin:round;stroke-dasharray:none;stroke-opacity:1"
       d="m 109.95077,42.16868 v 4.077737"
       id="path36" /><path
       style="fill:none;fill-opacity:1;stroke:#000000;stroke-width:1;stroke-linejoin:round;stroke-dasharray:none;stroke-opacity:1"
       d="m 110.344,59.327885 c 0,0 -1.48877,10.59439 5.30424,10.678057"
       id="path37" /><path
       style="fill:none;fill-opacity:1;stroke:#000000;stroke-width:2;stroke-linejoin:round;stroke-dasharray:none;stroke-opacity:1"
       d="m 106.79141,29.879311 c 0,0 3.31116,9.62856 -1.39864,13.880335"
       id="path40" /><ellipse
       style="fill:#000000;fill-opacity:1;stroke:#000000;stroke-width:1.73284;stroke-linejoin:round;stroke-dasharray:none;stroke-opacity:1"
       id="path41"
       cx="105.94286"
       cy="43.155758"
       rx="1.8531712"
       ry="2.054898" /><ellipse
       style="fill:#000000;fill-opacity:1;stroke:#000000;stroke-width:0.706691;stroke-linejoin:round;stroke-dasharray:none;stroke-opacity:1"
       id="path41-1"
       cx="97.772675"
       cy="45.109577"
       rx="0.78991812"
       ry="0.80180031" /><ellipse
       style="fill:#000000;fill-opacity:1;stroke:#000000;stroke-width:0.706691;stroke-linejoin:round;stroke-dasharray:none;stroke-opacity:1"
       id="path41-1-2"
       cx="95.375916"
       cy="44.031796"
       rx="0.78991812"
       ry="0.80180031" /><path
       style="fill:#000000;fill-opacity:1;stroke:#000000;stroke-width:1;stroke-linejoin:round;stroke-dasharray:none;stroke-opacity:1"
       d="m 94.636306,37.782616 c 0,0 -0.943814,3.271443 0.80977,5.892586"
       id="path42" /><path
       style="fill:none;fill-opacity:1;stroke:#000000;stroke-width:1;stroke-linejoin:round;stroke-dasharray:none;stroke-opacity:1"
       d="m 97.334257,40.236245 c 0,0 -0.721808,4.699693 0.856218,4.980588"
       id="path43" /></g></svg>
