<?xml version="1.0" encoding="UTF-8" standalone="no"?>
<!-- Created with Inkscape (http://www.inkscape.org/) -->

<svg
   width="800"
   height="300"
   viewBox="0 0 211.66667 79.374999"
   version="1.1"
   id="svg1"
   inkscape:version="1.3.2 (091e20ef0f, 2023-11-25)"
   sodipodi:docname="drawing3.svg"
   xml:space="preserve"
   xmlns:inkscape="http://www.inkscape.org/namespaces/inkscape"
   xmlns:sodipodi="http://sodipodi.sourceforge.net/DTD/sodipodi-0.dtd"
   xmlns:xlink="http://www.w3.org/1999/xlink"
   xmlns="http://www.w3.org/2000/svg"
   xmlns:svg="http://www.w3.org/2000/svg"><sodipodi:namedview
     id="namedview1"
     pagecolor="#ffffff"
     bordercolor="#000000"
     borderopacity="0.25"
     inkscape:showpageshadow="2"
     inkscape:pageopacity="0.0"
     inkscape:pagecheckerboard="0"
     inkscape:deskcolor="#d1d1d1"
     inkscape:document-units="mm"
     inkscape:zoom="0.64"
     inkscape:cx="581.25"
     inkscape:cy="224.21875"
     inkscape:window-width="1920"
     inkscape:window-height="1003"
     inkscape:window-x="0"
     inkscape:window-y="0"
     inkscape:window-maximized="1"
     inkscape:current-layer="layer1"
     showguides="false" /><defs
     id="defs1"><linearGradient
       id="linearGradient41"
       inkscape:collect="always"><stop
         style="stop-color:#1c5dbc;stop-opacity:1;"
         offset="0"
         id="stop41" /><stop
         style="stop-color:#5590e6;stop-opacity:1;"
         offset="1"
         id="stop42" /></linearGradient><linearGradient
       id="linearGradient38"
       inkscape:collect="always"><stop
         style="stop-color:#1c5dbc;stop-opacity:1;"
         offset="0"
         id="stop39" /><stop
         style="stop-color:#123366;stop-opacity:1;"
         offset="1"
         id="stop40" /></linearGradient><linearGradient
       id="linearGradient33"
       inkscape:collect="always"><stop
         style="stop-color:#1c5dbc;stop-opacity:1;"
         offset="0"
         id="stop33" /><stop
         style="stop-color:#174d9b;stop-opacity:1;"
         offset="1"
         id="stop34" /></linearGradient><linearGradient
       id="linearGradient31"
       inkscape:collect="always"><stop
         style="stop-color:#1c5dbc;stop-opacity:1;"
         offset="0"
         id="stop31" /><stop
         style="stop-color:#5892e6;stop-opacity:1;"
         offset="1"
         id="stop32" /></linearGradient><linearGradient
       inkscape:collect="always"
       xlink:href="#linearGradient51"
       id="linearGradient1-7"
       gradientUnits="userSpaceOnUse"
       x1="424.6879"
       y1="71.36142"
       x2="397.02975"
       y2="85.358124"
       gradientTransform="matrix(0.28729954,0,0,0.28729954,-12.717506,-2.439997)" /><linearGradient
       id="linearGradient51"
       inkscape:collect="always"><stop
         style="stop-color:#ffca63;stop-opacity:1;"
         offset="0"
         id="stop51" /><stop
         style="stop-color:#ff9f37;stop-opacity:1;"
         offset="1"
         id="stop52" /></linearGradient><linearGradient
       inkscape:collect="always"
       xlink:href="#linearGradient31"
       id="linearGradient32"
       x1="519.71283"
       y1="166.58475"
       x2="535.96075"
       y2="168.85028"
       gradientUnits="userSpaceOnUse"
       gradientTransform="matrix(0.28729954,0,0,0.28729954,-61.801366,-1.2857971)" /><radialGradient
       inkscape:collect="always"
       xlink:href="#linearGradient33"
       id="radialGradient34"
       cx="640.97723"
       cy="167.18192"
       fx="640.97723"
       fy="167.18192"
       r="25.797146"
       gradientTransform="matrix(0.28729954,0,0,0.57532611,-61.633391,-49.920227)"
       gradientUnits="userSpaceOnUse" /><linearGradient
       inkscape:collect="always"
       xlink:href="#linearGradient38"
       id="linearGradient40"
       x1="548.59558"
       y1="181.97682"
       x2="625.29413"
       y2="181.97682"
       gradientUnits="userSpaceOnUse"
       gradientTransform="matrix(0.28729954,0,0,0.28729954,-61.801366,-1.2857971)" /><linearGradient
       inkscape:collect="always"
       xlink:href="#linearGradient41"
       id="linearGradient42"
       x1="553.30847"
       y1="199.9052"
       x2="627.49579"
       y2="199.9052"
       gradientUnits="userSpaceOnUse"
       gradientTransform="matrix(0.28729954,0,0,0.28729954,-61.801366,-1.2857971)" /></defs><g
     inkscape:label="Layer 1"
     inkscape:groupmode="layer"
     id="layer1"><path
       style="fill:#113871;fill-opacity:1;stroke:#000000;stroke-width:1.29285;stroke-linejoin:round;stroke-opacity:1"
       d="m 108.5019,72.698288 c 0,0 -19.79941,5.462473 -17.171089,-35.23813 l 9.261969,-0.579946 z"
       id="path31"
       sodipodi:nodetypes="cccc" /><path
       style="fill:#0c2850;fill-opacity:1;stroke:#000000;stroke-width:1.29285;stroke-linejoin:round;stroke-opacity:1"
       d="m 105.82766,72.758753 c 0,0 19.79942,5.462473 17.1711,-35.238125 l -9.26197,-0.579946 z"
       id="path31-6"
       sodipodi:nodetypes="cccc" /><path
       style="fill:url(#linearGradient42);stroke:#000000;stroke-width:1.29285;stroke-linejoin:round;stroke-opacity:1"
       d="M 117.79495,39.792777 V 61.7526 c 0,0 1.18367,10.732053 -10.10971,10.732053 0,0 -10.913141,1.107225 -9.796401,-14.572735 z"
       id="path24" /><path
       style="fill:url(#linearGradient40);stroke:#000000;stroke-width:1.29285;stroke-linejoin:round;stroke-opacity:1"
       d="m 106.60885,29.3655 c 0,0 -10.146776,-1.245998 -10.146776,9.584473 v 20.26273 c 0,0 -0.615123,13.458617 11.366206,13.458617 0,0 -14.740373,-2.393898 -6.6696,-16.215363 0,0 16.00606,-6.324474 16.00606,-17.415435 0,0 1.19185,-9.675022 -10.55589,-9.675022 z"
       id="path23" /><path
       style="fill:#000000;stroke:#000000;stroke-width:0.968779;stroke-linejoin:round;stroke-dasharray:none"
       d="m 111.42131,27.371341 c 0,0 5.58442,1.574023 4.44684,-4.142508 0,0 4.43542,-2.444105 0.67422,-7.017867 0,0 1.54787,-4.922689 -2.19623,-5.186313 0,0 0.36646,-3.5308552 -4.42159,-3.2517727 0,0 -3.28045,-4.8397683 -7.77931,-0.7358931 0,0 -3.166182,-1.9012512 -4.332879,2.4047256 0,0 -3.877254,0.3820631 -1.704202,3.8823042 0,0 -3.201543,2.592116 -1.099231,5.138165 0,0 -2.102761,1.235203 0.315044,4.271054 0,0 -2.485488,7.030385 5.530378,5.714398"
       id="path26-0" /><path
       style="fill:url(#linearGradient1-7);fill-opacity:1;stroke:#000000;stroke-width:0.968779;stroke-linejoin:round;stroke-dasharray:none"
       d="M 112.58944,13.420909 H 99.117814 v 9.768395 c 0,0 -2.55184,-0.765168 -2.348106,1.7097 0.203742,2.474866 2.560164,1.809711 2.560164,1.809711 v 3.40409 h 13.468518 v -3.64706 c 0,0 2.67459,0.519077 2.59849,-2.274697 -0.0761,-2.793772 -2.78708,-1.355275 -2.78708,-1.355275 z"
       id="path1-6" /><path
       style="fill:none;fill-opacity:1;stroke:#ffffff;stroke-width:1.29285;stroke-linejoin:round;stroke-dasharray:none;stroke-opacity:1"
       d="m 99.687987,23.077524 v -9.115965 h 9.252883"
       id="path62-8" /><path
       style="fill:none;fill-opacity:1;stroke:#000000;stroke-width:1.29285;stroke-linejoin:round;stroke-opacity:1"
       d="m 105.36086,30.737424 c 0,0 8.52938,10.224214 -9.079169,18.44321"
       id="path30" /><path
       style="fill:none;fill-opacity:1;stroke:#000000;stroke-width:0.968779;stroke-linejoin:round;stroke-dasharray:none"
       d="M 112.58951,13.420952 H 99.117877 v 9.768398 c 0,0 -2.55184,-0.765171 -2.348107,1.7097 0.203743,2.474864 2.560165,1.809709 2.560165,1.809709 v 3.40409 h 13.468515 v -3.64706 c 0,0 2.67459,0.519077 2.5985,-2.274695 -0.0761,-2.793775 -2.78709,-1.355275 -2.78709,-1.355275 z"
       id="path1-8-9" /><ellipse
       style="fill:#000000;stroke:#000000;stroke-width:0.96872;stroke-linejoin:round"
       id="path15-6-26"
       cx="104.55946"
       cy="22.039221"
       rx="0.78886473"
       ry="0.83669615" /><rect
       style="fill:#f9f9f9;stroke:#000000;stroke-width:1.10768;stroke-linejoin:round;stroke-dasharray:none"
       id="rect17-6-9"
       width="11.907524"
       height="1.9502343"
       x="98.701347"
       y="17.137291"
       ry="0.30327889" /><circle
       style="fill:#ffffff;stroke:#000000;stroke-width:0.96872;stroke-linejoin:round"
       id="path16-9-6"
       cx="113.0694"
       cy="18.18"
       r="4.6299963" /><circle
       style="fill:#000000;stroke:#000000;stroke-width:0.96872;stroke-linejoin:round"
       id="path17-3-4"
       cx="113.18982"
       cy="18.186125"
       r="0.77221221" /><path
       style="fill:none;stroke:#000000;stroke-width:0.968779;stroke-linejoin:round;stroke-dasharray:none"
       d="m 107.69514,23.619365 c 0,0 2.1463,-0.575835 2.25821,1.673551 0,0 -0.39047,2.259637 -2.98646,0.738288 l -0.87053,0.632529"
       id="path46-5" /><path
       style="fill:#000000;stroke:#000000;stroke-width:0.968779;stroke-linejoin:round;stroke-dasharray:none"
       d="m 99.057624,27.752129 v 4.624584 l 2.703126,0.152172 0.15217,1.495857 3.07077,1.660808 -0.15217,2.987256 2.0659,0.79682 v 1.791579 l 1.48575,2.109895 1.10771,-4.003121 2.1506,-1.463755 0.5659,-3.563846 1.21707,-1.228963 v -5.038598 z"
       id="path5-0" /><path
       style="fill:#ffe680;stroke:#000000;stroke-width:0.96872;stroke-linejoin:round"
       d="m 110.06169,29.691109 h -6.44963 v 3.237484 h 6.63193 z"
       id="path11-9-4" /><path
       style="fill:#ffe680;stroke:#000000;stroke-width:0.96872;stroke-linejoin:round;stroke-dasharray:none"
       d="m 109.05924,30.764535 c 0,0 -1.26111,1.660766 -4.0146,0.03506"
       id="path19-2-8" /><path
       style="fill:url(#linearGradient32);fill-opacity:1;stroke:none;stroke-width:1.29285;stroke-linejoin:round;stroke-opacity:1"
       d="m 99.603974,31.804021 c 0,0 -13.75126,1.510091 -16.692047,16.956795 0,0 -2.537927,12.454405 9.595957,13.216834 l 3.30429,-4.878682 c 0,0 0.378349,-2.50999 -1.929835,-2.778621 0,0 -7.826719,-5.715019 2.47405,-11.082306 z"
       id="path25" /><path
       style="fill:#ffca63;fill-opacity:1;stroke:#000000;stroke-width:1.29285;stroke-linejoin:round;stroke-opacity:1"
       d="m 93.260869,61.265775 c 0,0 0.627265,1.625015 -1.559594,3.34212 l 1.565161,1.632425 c 0,0 11.081834,-3.156756 2.735257,-9.436643 z"
       id="path26" /><path
       style="fill:url(#radialGradient34);fill-opacity:1;stroke:none;stroke-width:1.29285;stroke-linejoin:round;stroke-opacity:1"
       d="m 115.75397,32.068501 c 0,0 17.80062,7.411476 12.58111,23.275315 0,0 -3.62837,11.657844 -11.81535,-0.186507 0,0 9.19493,-5.578384 1.37354,-12.363056 z"
       id="path27" /><path
       style="fill:none;fill-opacity:1;stroke:#000000;stroke-width:1.29285;stroke-linejoin:round;stroke-opacity:1"
       d="m 117.91923,60.489811 c 0,0 -11.11849,9.667931 -12.12782,-6.197998"
       id="path29" /><path
       style="fill:#ffca63;fill-opacity:1;stroke:#000000;stroke-width:1.29285;stroke-linejoin:round;stroke-opacity:1"
       d="m 116.86013,56.804022 c 0,0 -4.94948,5.395006 0.36479,7.627562 0,0 3.06943,1.47434 4.62519,-1.708636 l -2.34924,-3.179492 z"
       id="path28" /><path
       style="fill:none;fill-opacity:1;stroke:#000000;stroke-width:1.29285;stroke-linejoin:round;stroke-opacity:1"
       d="m 110.58897,37.991596 c 0,0 -1.14562,6.299623 1.4044,9.250412 0,0 4.57592,3.551967 1.40375,6.622571"
       id="path20-1" /><ellipse
       style="fill:#000000;stroke:#000000;stroke-width:2.28454;stroke-linejoin:round"
       id="path15-6-2-3-2-5-6-3-5"
       cx="-107.47341"
       cy="63.651997"
       rx="1.8603902"
       ry="1.9731917"
       transform="matrix(-0.99689643,0.0787243,0.0787243,0.99689643,0,0)" /><ellipse
       style="fill:#000000;stroke:#000000;stroke-width:1.11473;stroke-linejoin:round"
       id="path15-6-2-3-2-5-4-0"
       cx="101.3054"
       cy="51.066196"
       rx="0.90776974"
       ry="0.9628107" /><ellipse
       style="fill:#000000;stroke:#000000;stroke-width:1.11473;stroke-linejoin:round"
       id="path15-6-2-3-2-5-4-0-1"
       cx="103.76614"
       cy="47.883198"
       rx="0.90776974"
       ry="0.9628107" /><path
       style="fill:none;fill-opacity:1;stroke:#000000;stroke-width:1.29285;stroke-linejoin:round;stroke-opacity:1"
       d="m 101.59399,30.699537 v 10.378397 c 0,0 -3.161579,3.79147 -0.7539,8.780383"
       id="path18-9" /><path
       style="fill:none;fill-opacity:1;stroke:#000000;stroke-width:1.29285;stroke-linejoin:round;stroke-opacity:1"
       d="m 101.55954,41.23803 c 0,0 3.19259,2.659311 1.69529,6.36893"
       id="path19-1" /><ellipse
       style="fill:#000000;stroke:#000000;stroke-width:0.597008;stroke-linejoin:round"
       id="path15-6-2-8-3-6-6-4-7"
       cx="103.87457"
       cy="57.84832"
       rx="0.48616827"
       ry="0.51564622" /><ellipse
       style="fill:#000000;stroke:#000000;stroke-width:0.597008;stroke-linejoin:round"
       id="path15-6-2-8-3-6-6-4-7-6"
       cx="105.18142"
       cy="61.567665"
       rx="0.48616827"
       ry="0.51564622" /><ellipse
       style="fill:#000000;stroke:#000000;stroke-width:0.597008;stroke-linejoin:round"
       id="path15-6-2-8-3-6-6-4-7-6-9"
       cx="106.33949"
       cy="63.423035"
       rx="0.48616827"
       ry="0.51564622" /><ellipse
       style="fill:#000000;stroke:#000000;stroke-width:0.597008;stroke-linejoin:round"
       id="path15-6-2-8-3-6-6-4-7-6-9-2"
       cx="108.2213"
       cy="64.921494"
       rx="0.48616827"
       ry="0.51564622" /><ellipse
       style="fill:#000000;stroke:#000000;stroke-width:0.597008;stroke-linejoin:round"
       id="path15-6-2-8-3-6-6-4-7-6-9-2-0"
       cx="110.51765"
       cy="65.309715"
       rx="0.48616827"
       ry="0.51564622" /><ellipse
       style="fill:#000000;stroke:#000000;stroke-width:0.597008;stroke-linejoin:round"
       id="path15-6-2-8-3-6-6-4-7-6-9-2-0-0"
       cx="114.38232"
       cy="65.002502"
       rx="0.48616827"
       ry="0.51564622" /><path
       style="fill:none;fill-opacity:1;stroke:#fdfeff;stroke-width:1.29285;stroke-linejoin:round;stroke-opacity:1"
       d="m 98.471485,32.832837 c 0,0 -14.009772,2.215437 -15.082224,20.02816"
       id="path42" /><path
       style="fill:none;fill-opacity:1;stroke:#fdfeff;stroke-width:1.29285;stroke-linejoin:round;stroke-opacity:1"
       d="m 121.63071,50.931307 c 0,0 -2.86271,4.621481 -4.568,4.957421 0,0 4.72843,6.086952 8.69574,3.488993"
       id="path43" /><path
       style="fill:#133870;fill-opacity:1;stroke:none;stroke-width:1.29285;stroke-linejoin:round;stroke-opacity:1"
       d="m 96.697302,39.285587 c 0,0 -9.503121,4.453509 -6.046275,10.671034 0,0 0.426814,-5.641111 6.249674,-6.777861 z"
       id="path44" /><path
       style="fill:none;fill-opacity:1;stroke:#000000;stroke-width:1.29285;stroke-linejoin:round;stroke-opacity:1"
       d="m 99.655134,31.559544 c 0,0 -13.751262,1.510095 -16.692049,16.956799 0,0 -2.537924,12.454404 9.59596,13.216832 l 3.304288,-4.878683 c 0,0 0.378351,-2.509988 -1.929833,-2.778621 0,0 -7.826722,-5.715019 2.474048,-11.082302 z"
       id="path25-6" /><path
       style="fill:#2b72db;fill-opacity:1;stroke:none;stroke-width:1.29285;stroke-linejoin:round;stroke-opacity:1"
       d="m 116.22928,33.128658 0.89566,5.23691 c 0,0 13.1773,3.877056 11.19621,14.744548 0,0 4.24775,-13.09982 -12.09187,-19.981458 z"
       id="path45" /><path
       style="fill:none;fill-opacity:1;stroke:#000000;stroke-width:1.29285;stroke-linejoin:round;stroke-opacity:1"
       d="m 115.67879,32.64625 c 0,0 17.80062,7.411479 12.58111,23.275319 0,0 -3.62838,11.657843 -11.81535,-0.186511 0,0 9.19492,-5.578381 1.37353,-12.363053 z"
       id="path27-8" /></g></svg>
