<?xml version="1.0" encoding="UTF-8" standalone="no"?>
<!-- Created with Inkscape (http://www.inkscape.org/) -->

<svg
   width="800"
   height="300"
   viewBox="0 0 211.66666 79.375"
   version="1.1"
   id="svg1"
   inkscape:version="1.3.2 (091e20ef0f, 2023-11-25)"
   sodipodi:docname="illustration2.svg"
   xmlns:inkscape="http://www.inkscape.org/namespaces/inkscape"
   xmlns:sodipodi="http://sodipodi.sourceforge.net/DTD/sodipodi-0.dtd"
   xmlns="http://www.w3.org/2000/svg"
   xmlns:svg="http://www.w3.org/2000/svg">
  <sodipodi:namedview
     id="namedview1"
     pagecolor="#ffffff"
     bordercolor="#000000"
     borderopacity="0.25"
     inkscape:showpageshadow="2"
     inkscape:pageopacity="0.0"
     inkscape:pagecheckerboard="0"
     inkscape:deskcolor="#d1d1d1"
     inkscape:document-units="mm"
     showguides="true"
     inkscape:zoom="0.99906609"
     inkscape:cx="510.47674"
     inkscape:cy="306.78651"
     inkscape:window-width="1920"
     inkscape:window-height="1003"
     inkscape:window-x="0"
     inkscape:window-y="0"
     inkscape:window-maximized="1"
     inkscape:current-layer="layer1">
    <sodipodi:guide
       position="38.135614,74.343217"
       orientation="0,-1"
       id="guide1"
       inkscape:locked="false" />
    <sodipodi:guide
       position="104.86759,107.83906"
       orientation="1,0"
       id="guide2"
       inkscape:locked="false" />
    <sodipodi:guide
       position="133.48758,4.1211952"
       orientation="0,-1"
       id="guide14"
       inkscape:locked="false" />
    <sodipodi:guide
       position="102.12532,30.844781"
       orientation="1,0"
       id="guide16"
       inkscape:locked="false" />
  </sodipodi:namedview>
  <defs
     id="defs1" />
  <g
     inkscape:label="Layer 1"
     inkscape:groupmode="layer"
     id="layer1">
    <g
       id="g2"
       transform="translate(1.0855434,1.7347481)">
      <circle
         style="fill:none;stroke:#000000;stroke-width:0.942825;stroke-dasharray:none;stroke-opacity:1"
         id="path12-7"
         cx="99.644241"
         cy="21.43623"
         r="0.87528169" />
      <path
         style="fill:#000000;stroke:#000000;stroke-width:0.915423;stroke-dasharray:none;stroke-opacity:1"
         d="m 94.160315,19.119604 c 0,0 -4.39197,0.940845 -2.97633,-5.911413 0,0 -3.582826,-4.4397762 2.148364,-4.8707302 0,0 5.930597,-8.97800701 9.139111,-1.596516 0,0 2.49234,-5.114966 6.65878,-0.707317 0,0 4.33908,-4.254959 5.4161,1.985325 0,0 4.35611,4.6567212 1.39146,6.1242102 0,0 0.22154,5.37561 -5.16909,4.947249"
         id="path10"
         sodipodi:nodetypes="cccccccc" />
      <path
         style="fill:#ffffff;stroke:#000000;stroke-width:0.942825;stroke-dasharray:none;stroke-opacity:1"
         d="m 111.38146,19.916862 c 0,0 1.92799,-0.401388 2.04972,2.344549 0.12172,2.745932 -2.4311,2.334197 -2.4311,2.334197"
         id="path8"
         sodipodi:nodetypes="csc" />
      <path
         style="fill:#ffffff;stroke:#000000;stroke-width:0.942825;stroke-dasharray:none;stroke-opacity:1"
         d="m 95.713941,19.843677 c 0,0 -1.927984,-0.401388 -2.049712,2.344544 -0.121722,2.745937 2.431098,2.334197 2.431098,2.334197"
         id="path8-2"
         sodipodi:nodetypes="csc" />
      <path
         style="fill:#000000;stroke:#000000;stroke-width:0.942825;stroke-dasharray:none;stroke-opacity:1"
         d="m 96.209826,18.24417 v 7.104672"
         id="path5-5" />
      <path
         style="fill:#ffffff;stroke:#000000;stroke-width:0.471411;stroke-dasharray:none;stroke-opacity:1"
         d="m 99.836162,15.022251 h 11.983078 v 3.362155 H 98.642681 Z"
         id="path3" />
      <circle
         style="fill:#ffffff;stroke:#000000;stroke-width:0.471411;stroke-dasharray:none;stroke-opacity:1"
         id="path2"
         cx="96.921944"
         cy="16.527115"
         r="5.8980861" />
      <circle
         style="fill:#000000;stroke:#000000;stroke-width:0.471411;stroke-dasharray:none;stroke-opacity:1"
         id="path4"
         cx="96.859871"
         cy="16.503326"
         r="1.0283029" />
      <path
         style="fill:#000000;stroke:#000000;stroke-width:0.942825;stroke-dasharray:none;stroke-opacity:1"
         d="m 111.09114,18.415792 v 7.104666"
         id="path5" />
      <path
         style="fill:#000000;stroke:#000000;stroke-width:0.942825;stroke-dasharray:none;stroke-opacity:1"
         d="m 96.152615,25.330106 h 15.159025 l -1.40315,3.62631 1.04693,1.895911 -2.21489,1.900046 -0.52966,2.242819 -1.35935,0.706224 -0.68588,1.212788 -2.05178,1.039345 -2.62007,-1.92902 -0.6876,-2.246953 h -2.124887 v -1.727287 l -3.55837,-1.912465 1.561765,-2.09316 -1.811426,-1.61177 z"
         id="path6" />
      <path
         style="fill:#ffffff;stroke:#000000;stroke-width:0.942825;stroke-dasharray:none;stroke-opacity:1"
         d="m 100.08875,26.839633 h 8.21453 v 4.017001 h -8.30815 z"
         id="path7" />
      <path
         style="fill:#ffffff;stroke:#000000;stroke-width:0.942825;stroke-dasharray:none;stroke-opacity:1"
         d="m 103.72074,20.02411 0.96348,0.868987 0.70468,2.837315 h -2.96698"
         id="path9" />
      <path
         style="fill:none;stroke:#000000;stroke-width:0.942825;stroke-dasharray:none;stroke-opacity:1"
         d="m 101.73638,28.431742 c 0,0 2.15265,2.09885 4.86824,0.104142"
         id="path11" />
      <circle
         style="fill:none;stroke:#000000;stroke-width:0.942825;stroke-dasharray:none;stroke-opacity:1"
         id="path12"
         cx="108.27905"
         cy="21.407501"
         r="0.87528169" />
    </g>
    <path
       style="fill:#000000;stroke:#000000;stroke-width:1;stroke-linejoin:round;stroke-dasharray:none"
       d="m 98.127565,31.011137 0.05962,9.795494"
       id="path13"
       sodipodi:nodetypes="cc" />
    <path
       style="fill:#000000;stroke:#000000;stroke-width:1;stroke-linejoin:round;stroke-dasharray:none"
       d="m 111.15117,31.380495 0.0596,9.795494"
       id="path13-6"
       sodipodi:nodetypes="cc" />
    <path
       style="fill:none;stroke:#000000;stroke-width:1;stroke-linejoin:round;stroke-dasharray:none"
       d="m 95.571346,41.11898 h 17.841244 v 3.846949 H 95.523065 Z"
       id="path14" />
    <rect
       style="fill:none;stroke:#000000;stroke-width:1;stroke-linejoin:round;stroke-dasharray:none"
       id="rect14"
       width="24.873568"
       height="29.711981"
       x="92.045082"
       y="45.147308"
       ry="0.32756573" />
    <path
       style="fill:none;stroke:#000000;stroke-width:1;stroke-linejoin:round;stroke-dasharray:none"
       d="m 104.7703,74.823311 0.13405,-33.621122"
       id="path15" />
    <circle
       style="fill:#000000;fill-opacity:1;stroke:none;stroke-width:2.43544;stroke-linejoin:round;stroke-dasharray:none"
       id="path16"
       cx="102.76315"
       cy="43.111759"
       r="0.70626158" />
    <circle
       style="fill:#000000;fill-opacity:1;stroke:none;stroke-width:2.43544;stroke-linejoin:round;stroke-dasharray:none"
       id="path16-2"
       cx="106.99486"
       cy="43.172234"
       r="0.70626158" />
    <circle
       style="fill:#000000;fill-opacity:1;stroke:none;stroke-width:2.43544;stroke-linejoin:round;stroke-dasharray:none"
       id="path16-3"
       cx="102.80113"
       cy="48.638821"
       r="0.70626158" />
    <circle
       style="fill:#000000;fill-opacity:1;stroke:none;stroke-width:2.43544;stroke-linejoin:round;stroke-dasharray:none"
       id="path16-2-6"
       cx="107.03283"
       cy="48.699295"
       r="0.70626158" />
    <circle
       style="fill:#000000;fill-opacity:1;stroke:none;stroke-width:2.43544;stroke-linejoin:round;stroke-dasharray:none"
       id="path16-3-6"
       cx="102.80335"
       cy="50.970394"
       r="0.70626158" />
    <circle
       style="fill:#000000;fill-opacity:1;stroke:none;stroke-width:2.43544;stroke-linejoin:round;stroke-dasharray:none"
       id="path16-2-6-1"
       cx="107.03507"
       cy="51.030869"
       r="0.70626158" />
    <circle
       style="fill:#000000;fill-opacity:1;stroke:none;stroke-width:2.43544;stroke-linejoin:round;stroke-dasharray:none"
       id="path16-3-6-2"
       cx="102.80792"
       cy="53.230644"
       r="0.70626158" />
    <circle
       style="fill:#000000;fill-opacity:1;stroke:none;stroke-width:2.43544;stroke-linejoin:round;stroke-dasharray:none"
       id="path16-2-6-1-0"
       cx="107.03964"
       cy="53.291119"
       r="0.70626158" />
    <circle
       style="fill:#000000;fill-opacity:1;stroke:none;stroke-width:2.43544;stroke-linejoin:round;stroke-dasharray:none"
       id="path16-3-6-2-5"
       cx="102.79395"
       cy="55.406219"
       r="0.70626158" />
    <circle
       style="fill:#000000;fill-opacity:1;stroke:none;stroke-width:6.36882;stroke-linejoin:round;stroke-dasharray:none"
       id="path16-3-6-2-5-94"
       cx="94.649078"
       cy="57.600437"
       r="1.8469138" />
    <circle
       style="fill:#000000;fill-opacity:1;stroke:none;stroke-width:6.36882;stroke-linejoin:round;stroke-dasharray:none"
       id="path16-3-6-2-5-94-5"
       cx="99.759605"
       cy="57.629486"
       r="1.8469138" />
    <circle
       style="fill:#000000;fill-opacity:1;stroke:none;stroke-width:9.85582;stroke-linejoin:round;stroke-dasharray:none"
       id="path16-3-6-2-5-94-5-2"
       cx="111.76307"
       cy="64.07605"
       r="2.8581188" />
    <circle
       style="fill:#000000;fill-opacity:1;stroke:none;stroke-width:2.43544;stroke-linejoin:round;stroke-dasharray:none"
       id="path16-2-6-1-0-9"
       cx="107.02567"
       cy="55.466694"
       r="0.70626158" />
    <circle
       style="fill:#000000;fill-opacity:1;stroke:none;stroke-width:2.43544;stroke-linejoin:round;stroke-dasharray:none"
       id="path16-3-6-2-5-9"
       cx="102.80935"
       cy="59.921379"
       r="0.70626158" />
    <circle
       style="fill:#000000;fill-opacity:1;stroke:none;stroke-width:2.43544;stroke-linejoin:round;stroke-dasharray:none"
       id="path16-2-6-1-0-9-7"
       cx="107.04107"
       cy="59.981853"
       r="0.70626158" />
    <path
       style="fill:none;fill-opacity:1;stroke:#000000;stroke-width:1;stroke-linejoin:round;stroke-dasharray:none;stroke-opacity:1"
       d="m 92.10002,46.412467 c 0,0 -5.107688,0.216159 -5.0766,6.068145 l 0.04682,22.437703 7.991987,-0.04892"
       id="path17"
       sodipodi:nodetypes="cccc" />
    <path
       style="fill:none;fill-opacity:1;stroke:#000000;stroke-width:1.5;stroke-linejoin:round;stroke-dasharray:none;stroke-opacity:1"
       d="m 94.533737,56.658192 c 0,0 -0.267933,-7.526431 2.627617,-7.558259"
       id="path19"
       sodipodi:nodetypes="cc" />
    <path
       style="fill:none;fill-opacity:1;stroke:#000000;stroke-width:1.5;stroke-linejoin:round;stroke-dasharray:none;stroke-opacity:1"
       d="m 99.771364,56.660428 c 0,0 0.267926,-7.526431 -2.627615,-7.558259"
       id="path19-1"
       sodipodi:nodetypes="cc" />
    <path
       style="fill:none;fill-opacity:1;stroke:#000000;stroke-width:1.5;stroke-linejoin:round;stroke-dasharray:none;stroke-opacity:1"
       d="m 97.22197,49.093311 c 0,0 -8.520856,-6.2587 -1.862759,-6.633226"
       id="path20" />
    <path
       style="fill:none;fill-opacity:1;stroke:#000000;stroke-width:1.5;stroke-linejoin:round;stroke-dasharray:none;stroke-opacity:1"
       d="m 113.4556,42.26867 c 0,0 5.00078,-0.681721 -0.53736,11.131951 0,0 -1.2466,2.761324 -1.26987,8.940361"
       id="path21"
       sodipodi:nodetypes="ccc" />
    <path
       style="fill:none;fill-opacity:1;stroke:#000000;stroke-width:1;stroke-linejoin:round;stroke-dasharray:none;stroke-opacity:1"
       d="m 117.07403,46.548643 c 0,0 12.23549,1.641745 12.23549,-11.706085 l 5.86015,0 c 0,0 1.58847,18.011849 -17.7871,18.011849"
       id="path22" />
    <path
       style="fill:none;fill-opacity:1;stroke:#000000;stroke-width:1;stroke-linejoin:round;stroke-dasharray:none;stroke-opacity:1"
       d="M 129.89892,34.410787 V 32.49749 c 0,0 -3.1993,-2.494815 -0.82165,-2.872018 V 22.79936 c 0,0 0.71758,-1.696825 1.68985,-0.0128 v 5.374457 c 0,0 -0.64759,2.122524 5.36062,2.122524 0,0 1.51244,-4.165005 -5.18747,-4.165005"
       id="path23" />
    <path
       style="fill:none;fill-opacity:1;stroke:#000000;stroke-width:1;stroke-linejoin:round;stroke-dasharray:none;stroke-opacity:1"
       d="M 134.96109,30.646647 V 34.85756"
       id="path24" />
    <path
       style="fill:none;fill-opacity:1;stroke:#000000;stroke-width:1;stroke-linejoin:round;stroke-dasharray:none;stroke-opacity:1"
       d="M 132.59611,29.825129 V 27.716572"
       id="path25" />
    <path
       style="fill:none;fill-opacity:1;stroke:#000000;stroke-width:1;stroke-linejoin:round;stroke-dasharray:none;stroke-opacity:1"
       d="M 134.37337,30.120997 V 28.334036"
       id="path26" />
  </g>
</svg>
